<svg width="32" height="32" viewBox="0 0 32 32" fill="none" xmlns="http://www.w3.org/2000/svg">
<path d="M28.9991 16.0009C28.9927 19.177 27.8271 22.2416 25.7211 24.6191C23.6152 26.9966 20.7138 28.5236 17.5616 28.9134C17.4913 28.9203 17.4203 28.9126 17.3531 28.8908C17.2859 28.8689 17.2239 28.8334 17.1711 28.7864C17.1182 28.7395 17.0757 28.6821 17.0461 28.6179C17.0165 28.5537 17.0005 28.4841 16.9991 28.4134V19.0009H19.9991C20.1359 19.0012 20.2712 18.9734 20.3968 18.9193C20.5224 18.8652 20.6356 18.7859 20.7293 18.6863C20.823 18.5867 20.8953 18.469 20.9417 18.3403C20.9882 18.2117 21.0077 18.0749 20.9991 17.9384C20.977 17.6798 20.8576 17.4393 20.6651 17.2653C20.4725 17.0913 20.2211 16.9968 19.9616 17.0009H16.9991V14.0009C16.9991 13.4705 17.2099 12.9618 17.5849 12.5867C17.96 12.2116 18.4687 12.0009 18.9991 12.0009H20.9991C21.1359 12.0012 21.2712 11.9734 21.3968 11.9193C21.5224 11.8652 21.6356 11.7859 21.7293 11.6863C21.823 11.5867 21.8953 11.469 21.9417 11.3403C21.9882 11.2117 22.0077 11.0749 21.9991 10.9384C21.977 10.6798 21.8576 10.4393 21.6651 10.2653C21.4725 10.0913 21.2211 9.99682 20.9616 10.0009H18.9991C17.9383 10.0009 16.9209 10.4224 16.1707 11.1725C15.4206 11.9226 14.9991 12.9401 14.9991 14.0009V17.0009H11.9991C11.8624 17.0007 11.727 17.0284 11.6015 17.0826C11.4759 17.1367 11.3627 17.216 11.269 17.3156C11.1753 17.4151 11.103 17.5329 11.0566 17.6615C11.0101 17.7902 10.9906 17.9269 10.9991 18.0634C11.0213 18.322 11.1407 18.5626 11.3332 18.7366C11.5258 18.9106 11.7772 19.005 12.0366 19.0009H14.9991V28.4134C14.9995 28.4835 14.9851 28.5529 14.9569 28.6171C14.9287 28.6812 14.8874 28.7388 14.8355 28.7859C14.7836 28.833 14.7224 28.8688 14.6559 28.8907C14.5893 28.9127 14.5189 28.9204 14.4491 28.9134C7.84915 28.1134 2.74915 22.3759 3.01165 15.5134C3.159 12.1244 4.62521 8.92721 7.09731 6.60431C9.56942 4.2814 12.8516 3.01679 16.2432 3.08041C19.6348 3.14404 22.8672 4.53085 25.2505 6.94484C27.6337 9.35883 28.979 12.6088 28.9991 16.0009Z" fill="white"/>
</svg>
