<svg width="25" height="25" viewBox="0 0 25 25" fill="none" xmlns="http://www.w3.org/2000/svg">
<path fill-rule="evenodd" clip-rule="evenodd" d="M22.2222 25H2.77778C1.24375 25 0 23.7562 0 22.2222V2.77778C0 1.24375 1.24375 0 2.77778 0H22.2222C23.7562 0 25 1.24375 25 2.77778V22.2222C25 23.7562 23.7562 25 22.2222 25Z" fill="white"/>
<path d="M19.6236 19.4446H15.1535L5.4375 5.55566H9.90764L19.6236 19.4446ZM15.6861 18.2668H17.466L9.375 6.73344H7.59514L15.6861 18.2668Z" fill="black"/>
<path d="M6.85234 19.4445L11.8544 13.6501L11.2003 12.7827L5.43359 19.4445H6.85234Z" fill="black"/>
<path d="M12.8125 10.9175L13.441 11.8126L18.8444 5.55566H17.4556L12.8125 10.9175Z" fill="black"/>
</svg>
