<svg width="442" height="51" viewBox="0 0 442 51" fill="none" xmlns="http://www.w3.org/2000/svg">
<line x1="36.3923" y1="-1.71483e-08" x2="36.3923" y2="47.0769" stroke="white" stroke-width="0.784615"/>
<path d="M50.672 19.88C52.4853 18.664 53.936 17.4587 55.024 16.264C56.112 15.0587 56.656 13.9387 56.656 12.904C56.656 12.264 56.4907 11.752 56.16 11.368C55.84 10.9733 55.3173 10.776 54.592 10.776C53.8453 10.776 53.28 11.016 52.896 11.496C52.512 11.9653 52.2987 12.616 52.256 13.448H50.816C50.8907 12.1893 51.28 11.224 51.984 10.552C52.688 9.86933 53.5947 9.528 54.704 9.528C55.76 9.528 56.5973 9.81067 57.216 10.376C57.8347 10.9413 58.144 11.7413 58.144 12.776C58.144 13.6293 57.8667 14.4987 57.312 15.384C56.768 16.2587 56.08 17.0747 55.248 17.832C54.4267 18.5787 53.5787 19.2133 52.704 19.736H58.432V20.936H50.672V19.88ZM64.8701 12.072C65.8941 12.072 66.7208 12.4027 67.3501 13.064C67.9795 13.7147 68.2941 14.6587 68.2941 15.896V21H66.8381V16.024C66.8381 15.1493 66.6141 14.4773 66.1661 14.008C65.7181 13.5387 65.1101 13.304 64.3421 13.304C63.5421 13.304 62.9021 13.5653 62.4221 14.088C61.9421 14.6 61.7021 15.352 61.7021 16.344V21H60.2461V12.216H61.7021V14.296C61.9261 13.5813 62.3208 13.032 62.8861 12.648C63.4621 12.264 64.1235 12.072 64.8701 12.072ZM74.1274 12.104C74.9807 12.104 75.7007 12.3173 76.2874 12.744C76.8847 13.1707 77.3007 13.7413 77.5354 14.456V9.16H78.9914V21H77.5354V18.76C77.3007 19.4747 76.8847 20.0453 76.2874 20.472C75.7007 20.8987 74.9807 21.112 74.1274 21.112C73.3487 21.112 72.6554 20.9307 72.0474 20.568C71.4394 20.2053 70.9594 19.688 70.6074 19.016C70.266 18.3333 70.0954 17.5333 70.0954 16.616C70.0954 15.6987 70.266 14.8987 70.6074 14.216C70.9594 13.5333 71.4394 13.0107 72.0474 12.648C72.6554 12.2853 73.3487 12.104 74.1274 12.104ZM74.5434 13.4C73.6474 13.4 72.9274 13.688 72.3834 14.264C71.85 14.8293 71.5834 15.6133 71.5834 16.616C71.5834 17.6187 71.85 18.408 72.3834 18.984C72.9274 19.5493 73.6474 19.832 74.5434 19.832C75.1194 19.832 75.6314 19.6987 76.0794 19.432C76.538 19.1653 76.8954 18.792 77.1514 18.312C77.4074 17.8213 77.5354 17.256 77.5354 16.616C77.5354 15.976 77.4074 15.4107 77.1514 14.92C76.8954 14.4293 76.538 14.056 76.0794 13.8C75.6314 13.5333 75.1194 13.4 74.5434 13.4ZM89.1498 10.136C88.3711 10.1253 87.8271 10.2587 87.5178 10.536C87.2191 10.8133 87.0698 11.2933 87.0698 11.976V12.216H89.1498V13.496H87.0698V21H85.6138V13.496H84.3498V12.216H85.6138V11.864C85.6138 9.76267 86.7924 8.76 89.1498 8.856V10.136ZM92.1865 9.16V21H90.7305V9.16H92.1865ZM98.5114 12.104C99.354 12.104 100.106 12.2853 100.767 12.648C101.439 13.0107 101.962 13.5333 102.335 14.216C102.719 14.8987 102.911 15.6987 102.911 16.616C102.911 17.5333 102.719 18.3333 102.335 19.016C101.962 19.688 101.439 20.2053 100.767 20.568C100.106 20.9307 99.354 21.112 98.5114 21.112C97.6687 21.112 96.9114 20.9307 96.2394 20.568C95.578 20.2053 95.0554 19.688 94.6714 19.016C94.2874 18.3333 94.0954 17.5333 94.0954 16.616C94.0954 15.6987 94.2874 14.8987 94.6714 14.216C95.0554 13.5333 95.578 13.0107 96.2394 12.648C96.9114 12.2853 97.6687 12.104 98.5114 12.104ZM98.5114 13.384C97.9887 13.384 97.5034 13.5013 97.0554 13.736C96.618 13.9707 96.2607 14.3333 95.9834 14.824C95.7167 15.304 95.5834 15.9013 95.5834 16.616C95.5834 17.32 95.7167 17.9173 95.9834 18.408C96.2607 18.888 96.618 19.2453 97.0554 19.48C97.5034 19.7147 97.9887 19.832 98.5114 19.832C99.034 19.832 99.514 19.7147 99.9514 19.48C100.399 19.2453 100.757 18.888 101.023 18.408C101.301 17.9173 101.439 17.32 101.439 16.616C101.439 15.9013 101.301 15.304 101.023 14.824C100.757 14.3333 100.399 13.9707 99.9514 13.736C99.514 13.5013 99.034 13.384 98.5114 13.384ZM108.793 12.104C109.635 12.104 110.387 12.2853 111.049 12.648C111.721 13.0107 112.243 13.5333 112.617 14.216C113.001 14.8987 113.193 15.6987 113.193 16.616C113.193 17.5333 113.001 18.3333 112.617 19.016C112.243 19.688 111.721 20.2053 111.049 20.568C110.387 20.9307 109.635 21.112 108.793 21.112C107.95 21.112 107.193 20.9307 106.521 20.568C105.859 20.2053 105.337 19.688 104.953 19.016C104.569 18.3333 104.377 17.5333 104.377 16.616C104.377 15.6987 104.569 14.8987 104.953 14.216C105.337 13.5333 105.859 13.0107 106.521 12.648C107.193 12.2853 107.95 12.104 108.793 12.104ZM108.793 13.384C108.27 13.384 107.785 13.5013 107.337 13.736C106.899 13.9707 106.542 14.3333 106.265 14.824C105.998 15.304 105.865 15.9013 105.865 16.616C105.865 17.32 105.998 17.9173 106.265 18.408C106.542 18.888 106.899 19.2453 107.337 19.48C107.785 19.7147 108.27 19.832 108.793 19.832C109.315 19.832 109.795 19.7147 110.233 19.48C110.681 19.2453 111.038 18.888 111.305 18.408C111.582 17.9173 111.721 17.32 111.721 16.616C111.721 15.9013 111.582 15.304 111.305 14.824C111.038 14.3333 110.681 13.9707 110.233 13.736C109.795 13.5013 109.315 13.384 108.793 13.384ZM116.546 13.992C116.834 13.384 117.255 12.9147 117.81 12.584C118.365 12.2427 119.026 12.072 119.794 12.072V13.656H119.346C118.525 13.656 117.853 13.8693 117.33 14.296C116.807 14.712 116.546 15.4053 116.546 16.376V21H115.09V12.216H116.546V13.992ZM122.079 19.928C122.228 20.3973 122.303 20.8347 122.303 21.24C122.303 21.7947 122.164 22.2373 121.887 22.568C121.609 22.9093 121.193 23.08 120.639 23.08V22.456C120.905 22.456 121.097 22.3813 121.215 22.232C121.343 22.0933 121.407 21.8693 121.407 21.56V21.416H120.59V19.928H122.079ZM127.309 18.408V17.192L133.101 9.64H134.669V17.144H136.333V18.408H134.669V21H133.197V18.408H127.309ZM133.293 11.416L128.845 17.144H133.293V11.416ZM155.728 9.72L152.864 21H151.088L148.48 11.784L145.872 21H144.096L141.215 9.72H142.832L144.992 19.304L147.664 9.72H149.28L151.952 19.272L154.128 9.72H155.728ZM158.89 9.72V21H157.434V9.72H158.89ZM169.999 21H168.543L162.687 12.088V21H161.231V9.72H162.687L168.543 18.648V9.72H169.999V21ZM177.46 9.608C178.772 9.608 179.871 9.93333 180.756 10.584C181.652 11.2347 182.255 12.12 182.564 13.24H181.028C180.761 12.5573 180.313 12.008 179.684 11.592C179.065 11.176 178.329 10.968 177.476 10.968C176.708 10.968 176.02 11.1493 175.412 11.512C174.804 11.864 174.324 12.3707 173.972 13.032C173.631 13.6933 173.46 14.472 173.46 15.368C173.46 16.2853 173.636 17.08 173.988 17.752C174.34 18.4133 174.825 18.9253 175.444 19.288C176.073 19.64 176.793 19.816 177.604 19.816C178.297 19.816 178.932 19.6667 179.508 19.368C180.084 19.0693 180.553 18.6373 180.916 18.072C181.289 17.496 181.513 16.824 181.588 16.056H177.156V14.968H182.82V16.312C182.724 17.208 182.447 18.0187 181.988 18.744C181.529 19.4693 180.911 20.0453 180.132 20.472C179.353 20.8987 178.468 21.112 177.476 21.112C176.388 21.112 175.428 20.872 174.596 20.392C173.764 19.9013 173.113 19.224 172.644 18.36C172.185 17.4853 171.956 16.488 171.956 15.368C171.956 14.248 172.185 13.256 172.644 12.392C173.113 11.5173 173.764 10.8347 174.596 10.344C175.428 9.85333 176.383 9.608 177.46 9.608ZM195.354 18.392H190.394L189.45 21H187.882L192.058 9.928H193.706L197.866 21H196.298L195.354 18.392ZM194.938 17.256L192.874 11.56L190.81 17.256H194.938ZM202.748 19.448L205.468 12.216H207.036L203.596 21H201.868L198.428 12.216H199.996L202.748 19.448ZM216.545 16.12C216.545 16.4293 216.524 16.696 216.481 16.92H209.457C209.489 17.9227 209.772 18.6747 210.305 19.176C210.849 19.6773 211.51 19.928 212.289 19.928C212.993 19.928 213.58 19.752 214.049 19.4C214.529 19.0373 214.822 18.5573 214.929 17.96H216.481C216.374 18.568 216.134 19.112 215.761 19.592C215.398 20.072 214.924 20.4453 214.337 20.712C213.75 20.9787 213.089 21.112 212.353 21.112C211.51 21.112 210.764 20.9307 210.113 20.568C209.462 20.2053 208.95 19.688 208.577 19.016C208.214 18.3333 208.033 17.5333 208.033 16.616C208.033 15.6987 208.214 14.8987 208.577 14.216C208.95 13.5333 209.462 13.0107 210.113 12.648C210.764 12.2853 211.51 12.104 212.353 12.104C213.206 12.104 213.948 12.2853 214.577 12.648C215.217 13.0107 215.702 13.496 216.033 14.104C216.374 14.712 216.545 15.384 216.545 16.12ZM215.073 16.216C215.105 15.5653 214.998 15.0213 214.753 14.584C214.508 14.1467 214.172 13.8213 213.745 13.608C213.318 13.3947 212.854 13.288 212.353 13.288C211.553 13.288 210.881 13.5387 210.337 14.04C209.793 14.5307 209.5 15.256 209.457 16.216H215.073ZM223.073 12.072C224.097 12.072 224.924 12.4027 225.553 13.064C226.183 13.7147 226.497 14.6587 226.497 15.896V21H225.041V16.024C225.041 15.1493 224.817 14.4773 224.369 14.008C223.921 13.5387 223.313 13.304 222.545 13.304C221.745 13.304 221.105 13.5653 220.625 14.088C220.145 14.6 219.905 15.352 219.905 16.344V21H218.449V12.216H219.905V14.296C220.129 13.5813 220.524 13.032 221.089 12.648C221.665 12.264 222.327 12.072 223.073 12.072ZM236.539 12.216V21H235.083V18.936C234.859 19.6507 234.459 20.2 233.883 20.584C233.317 20.9573 232.656 21.144 231.899 21.144C230.885 21.144 230.064 20.8187 229.435 20.168C228.805 19.5067 228.491 18.5627 228.491 17.336V12.216H229.947V17.192C229.947 18.0667 230.171 18.744 230.619 19.224C231.067 19.6933 231.675 19.928 232.443 19.928C233.243 19.928 233.883 19.672 234.363 19.16C234.843 18.6373 235.083 17.88 235.083 16.888V12.216H236.539ZM246.951 16.12C246.951 16.4293 246.93 16.696 246.887 16.92H239.863C239.895 17.9227 240.178 18.6747 240.711 19.176C241.255 19.6773 241.916 19.928 242.695 19.928C243.399 19.928 243.986 19.752 244.455 19.4C244.935 19.0373 245.228 18.5573 245.335 17.96H246.887C246.78 18.568 246.54 19.112 246.167 19.592C245.804 20.072 245.33 20.4453 244.743 20.712C244.156 20.9787 243.495 21.112 242.759 21.112C241.916 21.112 241.17 20.9307 240.519 20.568C239.868 20.2053 239.356 19.688 238.983 19.016C238.62 18.3333 238.439 17.5333 238.439 16.616C238.439 15.6987 238.62 14.8987 238.983 14.216C239.356 13.5333 239.868 13.0107 240.519 12.648C241.17 12.2853 241.916 12.104 242.759 12.104C243.612 12.104 244.354 12.2853 244.983 12.648C245.623 13.0107 246.108 13.496 246.439 14.104C246.78 14.712 246.951 15.384 246.951 16.12ZM245.479 16.216C245.511 15.5653 245.404 15.0213 245.159 14.584C244.914 14.1467 244.578 13.8213 244.151 13.608C243.724 13.3947 243.26 13.288 242.759 13.288C241.959 13.288 241.287 13.5387 240.743 14.04C240.199 14.5307 239.906 15.256 239.863 16.216H245.479ZM253.657 19.928C253.806 20.3973 253.881 20.8347 253.881 21.24C253.881 21.7947 253.742 22.2373 253.465 22.568C253.187 22.9093 252.771 23.08 252.217 23.08V22.456C252.483 22.456 252.675 22.3813 252.793 22.232C252.921 22.0933 252.985 21.8693 252.985 21.56V21.416H252.169V19.928H253.657ZM257.062 16.456V21H255.606V9.72H259.19C260.48 9.72 261.446 10.024 262.086 10.632C262.726 11.2293 263.046 12.0507 263.046 13.096C263.046 14.152 262.715 14.9787 262.054 15.576C261.392 16.1627 260.438 16.456 259.19 16.456H257.062ZM259.062 15.24C259.947 15.24 260.582 15.0533 260.966 14.68C261.36 14.3067 261.558 13.7787 261.558 13.096C261.558 12.392 261.36 11.8587 260.966 11.496C260.582 11.1227 259.947 10.936 259.062 10.936H257.062V15.24H259.062ZM268.346 12.104C269.199 12.104 269.919 12.3173 270.506 12.744C271.103 13.1707 271.519 13.7413 271.754 14.456V12.216H273.21V21H271.754V18.76C271.519 19.4747 271.103 20.0453 270.506 20.472C269.919 20.8987 269.199 21.112 268.346 21.112C267.567 21.112 266.874 20.9307 266.266 20.568C265.658 20.2053 265.178 19.688 264.826 19.016C264.485 18.3333 264.314 17.5333 264.314 16.616C264.314 15.6987 264.485 14.8987 264.826 14.216C265.178 13.5333 265.658 13.0107 266.266 12.648C266.874 12.2853 267.567 12.104 268.346 12.104ZM268.762 13.4C267.866 13.4 267.146 13.688 266.602 14.264C266.069 14.8293 265.802 15.6133 265.802 16.616C265.802 17.6187 266.069 18.408 266.602 18.984C267.146 19.5493 267.866 19.832 268.762 19.832C269.338 19.832 269.85 19.6987 270.298 19.432C270.757 19.1653 271.114 18.792 271.37 18.312C271.626 17.8213 271.754 17.256 271.754 16.616C271.754 15.976 271.626 15.4107 271.37 14.92C271.114 14.4293 270.757 14.056 270.298 13.8C269.85 13.5333 269.338 13.4 268.762 13.4ZM280.151 12.072C281.175 12.072 282.002 12.4027 282.631 13.064C283.261 13.7147 283.575 14.6587 283.575 15.896V21H282.119V16.024C282.119 15.1493 281.895 14.4773 281.447 14.008C280.999 13.5387 280.391 13.304 279.623 13.304C278.823 13.304 278.183 13.5653 277.703 14.088C277.223 14.6 276.983 15.352 276.983 16.344V21H275.527V12.216H276.983V14.296C277.207 13.5813 277.602 13.032 278.167 12.648C278.743 12.264 279.405 12.072 280.151 12.072ZM290.433 12.072C291.457 12.072 292.283 12.4027 292.913 13.064C293.542 13.7147 293.857 14.6587 293.857 15.896V21H292.401V16.024C292.401 15.1493 292.177 14.4773 291.729 14.008C291.281 13.5387 290.673 13.304 289.905 13.304C289.105 13.304 288.465 13.5653 287.985 14.088C287.505 14.6 287.265 15.352 287.265 16.344V21H285.809V12.216H287.265V14.296C287.489 13.5813 287.883 13.032 288.449 12.648C289.025 12.264 289.686 12.072 290.433 12.072ZM295.834 9.64C295.834 9.37333 295.925 9.16 296.106 9C296.287 8.82933 296.527 8.744 296.826 8.744C297.125 8.744 297.365 8.82933 297.546 9C297.727 9.16 297.818 9.37333 297.818 9.64C297.818 9.90667 297.727 10.1253 297.546 10.296C297.365 10.456 297.125 10.536 296.826 10.536C296.527 10.536 296.287 10.456 296.106 10.296C295.925 10.1253 295.834 9.90667 295.834 9.64ZM297.546 12.216V21H296.09V12.216H297.546ZM300.495 12.216L303.343 19.128L305.983 12.216H307.599L302.383 25.16H300.735L302.559 20.856L298.863 12.216H300.495ZM312.534 12.104C313.387 12.104 314.107 12.3173 314.694 12.744C315.291 13.1707 315.707 13.7413 315.942 14.456V12.216H317.398V21H315.942V18.76C315.707 19.4747 315.291 20.0453 314.694 20.472C314.107 20.8987 313.387 21.112 312.534 21.112C311.755 21.112 311.062 20.9307 310.454 20.568C309.846 20.2053 309.366 19.688 309.014 19.016C308.672 18.3333 308.502 17.5333 308.502 16.616C308.502 15.6987 308.672 14.8987 309.014 14.216C309.366 13.5333 309.846 13.0107 310.454 12.648C311.062 12.2853 311.755 12.104 312.534 12.104ZM312.95 13.4C312.054 13.4 311.334 13.688 310.79 14.264C310.256 14.8293 309.99 15.6133 309.99 16.616C309.99 17.6187 310.256 18.408 310.79 18.984C311.334 19.5493 312.054 19.832 312.95 19.832C313.526 19.832 314.038 19.6987 314.486 19.432C314.944 19.1653 315.302 18.792 315.558 18.312C315.814 17.8213 315.942 17.256 315.942 16.616C315.942 15.976 315.814 15.4107 315.558 14.92C315.302 14.4293 314.944 14.056 314.486 13.8C314.038 13.5333 313.526 13.4 312.95 13.4ZM324.339 12.072C325.363 12.072 326.19 12.4027 326.819 13.064C327.448 13.7147 327.763 14.6587 327.763 15.896V21H326.307V16.024C326.307 15.1493 326.083 14.4773 325.635 14.008C325.187 13.5387 324.579 13.304 323.811 13.304C323.011 13.304 322.371 13.5653 321.891 14.088C321.411 14.6 321.171 15.352 321.171 16.344V21H319.715V12.216H321.171V14.296C321.395 13.5813 321.79 13.032 322.355 12.648C322.931 12.264 323.592 12.072 324.339 12.072ZM334.812 21L331.452 17.048V21H329.996V9.16H331.452V16.04L334.764 12.216H336.54L332.604 16.584L336.636 21H334.812ZM341.518 12.104C342.371 12.104 343.091 12.3173 343.678 12.744C344.275 13.1707 344.691 13.7413 344.926 14.456V12.216H346.382V21H344.926V18.76C344.691 19.4747 344.275 20.0453 343.678 20.472C343.091 20.8987 342.371 21.112 341.518 21.112C340.739 21.112 340.046 20.9307 339.438 20.568C338.83 20.2053 338.35 19.688 337.998 19.016C337.657 18.3333 337.486 17.5333 337.486 16.616C337.486 15.6987 337.657 14.8987 337.998 14.216C338.35 13.5333 338.83 13.0107 339.438 12.648C340.046 12.2853 340.739 12.104 341.518 12.104ZM341.934 13.4C341.038 13.4 340.318 13.688 339.774 14.264C339.241 14.8293 338.974 15.6133 338.974 16.616C338.974 17.6187 339.241 18.408 339.774 18.984C340.318 19.5493 341.038 19.832 341.934 19.832C342.51 19.832 343.022 19.6987 343.47 19.432C343.929 19.1653 344.286 18.792 344.542 18.312C344.798 17.8213 344.926 17.256 344.926 16.616C344.926 15.976 344.798 15.4107 344.542 14.92C344.286 14.4293 343.929 14.056 343.47 13.8C343.022 13.5333 342.51 13.4 341.934 13.4ZM350.155 13.992C350.443 13.384 350.865 12.9147 351.419 12.584C351.974 12.2427 352.635 12.072 353.403 12.072V13.656H352.955C352.134 13.656 351.462 13.8693 350.939 14.296C350.417 14.712 350.155 15.4053 350.155 16.376V21H348.699V12.216H350.155V13.992ZM358.44 12.104C359.293 12.104 360.013 12.3173 360.6 12.744C361.197 13.1707 361.613 13.7413 361.848 14.456V12.216H363.304V21H361.848V18.76C361.613 19.4747 361.197 20.0453 360.6 20.472C360.013 20.8987 359.293 21.112 358.44 21.112C357.661 21.112 356.968 20.9307 356.36 20.568C355.752 20.2053 355.272 19.688 354.92 19.016C354.579 18.3333 354.408 17.5333 354.408 16.616C354.408 15.6987 354.579 14.8987 354.92 14.216C355.272 13.5333 355.752 13.0107 356.36 12.648C356.968 12.2853 357.661 12.104 358.44 12.104ZM358.856 13.4C357.96 13.4 357.24 13.688 356.696 14.264C356.163 14.8293 355.896 15.6133 355.896 16.616C355.896 17.6187 356.163 18.408 356.696 18.984C357.24 19.5493 357.96 19.832 358.856 19.832C359.432 19.832 359.944 19.6987 360.392 19.432C360.851 19.1653 361.208 18.792 361.464 18.312C361.72 17.8213 361.848 17.256 361.848 16.616C361.848 15.976 361.72 15.4107 361.464 14.92C361.208 14.4293 360.851 14.056 360.392 13.8C359.944 13.5333 359.432 13.4 358.856 13.4ZM366.469 19.928C366.618 20.3973 366.693 20.8347 366.693 21.24C366.693 21.7947 366.554 22.2373 366.277 22.568C366 22.9093 365.584 23.08 365.029 23.08V22.456C365.296 22.456 365.488 22.3813 365.605 22.232C365.733 22.0933 365.797 21.8693 365.797 21.56V21.416H364.981V19.928H366.469ZM378.483 12.728C378.398 12.056 378.168 11.5387 377.795 11.176C377.432 10.8027 376.926 10.616 376.275 10.616C375.368 10.616 374.68 10.968 374.211 11.672C373.752 12.376 373.523 13.4907 373.523 15.016L373.539 15.608C373.699 14.968 374.067 14.4613 374.643 14.088C375.219 13.704 375.896 13.512 376.675 13.512C377.795 13.512 378.67 13.848 379.299 14.52C379.939 15.192 380.259 16.1307 380.259 17.336C380.259 18.04 380.12 18.68 379.843 19.256C379.566 19.8213 379.139 20.2747 378.563 20.616C377.998 20.9467 377.294 21.112 376.451 21.112C374.84 21.112 373.731 20.6053 373.123 19.592C372.526 18.5787 372.227 17.2027 372.227 15.464C372.227 13.4587 372.547 11.9547 373.187 10.952C373.838 9.93867 374.894 9.432 376.355 9.432C377.432 9.432 378.259 9.736 378.835 10.344C379.422 10.952 379.768 11.7467 379.875 12.728H378.483ZM373.699 17.096C373.699 17.8747 373.923 18.5307 374.371 19.064C374.83 19.5867 375.512 19.848 376.419 19.848C377.166 19.848 377.763 19.6293 378.211 19.192C378.659 18.744 378.883 18.12 378.883 17.32C378.883 16.456 378.659 15.8 378.211 15.352C377.763 14.8933 377.144 14.664 376.355 14.664C375.907 14.664 375.48 14.7547 375.075 14.936C374.67 15.1173 374.339 15.3947 374.083 15.768C373.827 16.1307 373.699 16.5733 373.699 17.096ZM388.757 10.776L384.485 21H382.949L387.285 10.92H381.365V9.656H388.757V10.776ZM394.018 9.416C394.744 9.416 395.368 9.544 395.89 9.8C396.413 10.056 396.808 10.408 397.074 10.856C397.341 11.304 397.474 11.8107 397.474 12.376C397.474 13.08 397.266 13.672 396.85 14.152C396.445 14.632 395.848 14.92 395.058 15.016V15.112C395.88 15.3253 396.52 15.656 396.978 16.104C397.448 16.552 397.682 17.1707 397.682 17.96C397.682 18.888 397.373 19.6453 396.754 20.232C396.136 20.8187 395.245 21.112 394.082 21.112C392.92 21.112 391.976 20.8133 391.25 20.216C390.536 19.608 390.114 18.7227 389.986 17.56H391.426C391.522 18.264 391.789 18.824 392.226 19.24C392.674 19.656 393.277 19.864 394.034 19.864C394.749 19.864 395.298 19.6827 395.682 19.32C396.066 18.9467 396.258 18.4667 396.258 17.88C396.258 17.176 395.981 16.6427 395.426 16.28C394.882 15.9067 394.104 15.72 393.09 15.72H392.706V14.504H393.09C395.053 14.504 396.034 13.848 396.034 12.536C396.034 11.96 395.853 11.5013 395.49 11.16C395.128 10.8187 394.626 10.648 393.986 10.648C393.346 10.648 392.808 10.8347 392.37 11.208C391.933 11.5707 391.677 12.1093 391.602 12.824H390.178C390.253 11.7573 390.621 10.9253 391.282 10.328C391.954 9.72 392.866 9.416 394.018 9.416ZM400.464 19.528C399.867 18.5147 399.568 17.1013 399.568 15.288C399.568 13.4853 399.867 12.0827 400.464 11.08C401.062 10.0667 402.096 9.56 403.568 9.56C405.04 9.56 406.075 10.0667 406.672 11.08C407.28 12.0933 407.584 13.496 407.584 15.288C407.584 17.1013 407.28 18.5147 406.672 19.528C406.075 20.5413 405.04 21.048 403.568 21.048C402.096 21.048 401.062 20.5413 400.464 19.528ZM405.936 17.624C406.075 16.9947 406.144 16.216 406.144 15.288C406.144 14.3707 406.075 13.6027 405.936 12.984C405.808 12.3653 405.558 11.8747 405.184 11.512C404.811 11.1387 404.272 10.952 403.568 10.952C402.875 10.952 402.342 11.1387 401.968 11.512C401.595 11.8747 401.339 12.3653 401.2 12.984C401.072 13.6027 401.008 14.3707 401.008 15.288C401.008 16.216 401.072 16.9947 401.2 17.624C401.339 18.2427 401.595 18.7387 401.968 19.112C402.342 19.4853 402.875 19.672 403.568 19.672C404.272 19.672 404.811 19.4853 405.184 19.112C405.558 18.7387 405.808 18.2427 405.936 17.624ZM410.292 19.528C409.695 18.5147 409.396 17.1013 409.396 15.288C409.396 13.4853 409.695 12.0827 410.292 11.08C410.89 10.0667 411.924 9.56 413.396 9.56C414.868 9.56 415.903 10.0667 416.5 11.08C417.108 12.0933 417.412 13.496 417.412 15.288C417.412 17.1013 417.108 18.5147 416.5 19.528C415.903 20.5413 414.868 21.048 413.396 21.048C411.924 21.048 410.89 20.5413 410.292 19.528ZM415.764 17.624C415.903 16.9947 415.972 16.216 415.972 15.288C415.972 14.3707 415.903 13.6027 415.764 12.984C415.636 12.3653 415.386 11.8747 415.012 11.512C414.639 11.1387 414.1 10.952 413.396 10.952C412.703 10.952 412.17 11.1387 411.796 11.512C411.423 11.8747 411.167 12.3653 411.028 12.984C410.9 13.6027 410.836 14.3707 410.836 15.288C410.836 16.216 410.9 16.9947 411.028 17.624C411.167 18.2427 411.423 18.7387 411.796 19.112C412.17 19.4853 412.703 19.672 413.396 19.672C414.1 19.672 414.639 19.4853 415.012 19.112C415.386 18.7387 415.636 18.2427 415.764 17.624ZM423.097 9.416C423.822 9.416 424.446 9.544 424.969 9.8C425.491 10.056 425.886 10.408 426.153 10.856C426.419 11.304 426.553 11.8107 426.553 12.376C426.553 13.08 426.345 13.672 425.929 14.152C425.523 14.632 424.926 14.92 424.137 15.016V15.112C424.958 15.3253 425.598 15.656 426.057 16.104C426.526 16.552 426.76 17.1707 426.76 17.96C426.76 18.888 426.451 19.6453 425.833 20.232C425.214 20.8187 424.323 21.112 423.161 21.112C421.998 21.112 421.054 20.8133 420.329 20.216C419.614 19.608 419.193 18.7227 419.065 17.56H420.505C420.601 18.264 420.867 18.824 421.305 19.24C421.753 19.656 422.355 19.864 423.113 19.864C423.827 19.864 424.377 19.6827 424.761 19.32C425.145 18.9467 425.337 18.4667 425.337 17.88C425.337 17.176 425.059 16.6427 424.505 16.28C423.961 15.9067 423.182 15.72 422.169 15.72H421.785V14.504H422.169C424.131 14.504 425.113 13.848 425.113 12.536C425.113 11.96 424.931 11.5013 424.569 11.16C424.206 10.8187 423.705 10.648 423.065 10.648C422.425 10.648 421.886 10.8347 421.449 11.208C421.011 11.5707 420.755 12.1093 420.681 12.824H419.257C419.331 11.7573 419.699 10.9253 420.361 10.328C421.033 9.72 421.945 9.416 423.097 9.416ZM53.968 39.304L59.12 45H57.328L52.624 39.736V45H51.168V33.72H52.624V38.952L57.344 33.72H59.12L53.968 39.304ZM64.5426 36.104C65.3853 36.104 66.1373 36.2853 66.7986 36.648C67.4706 37.0107 67.9933 37.5333 68.3666 38.216C68.7506 38.8987 68.9426 39.6987 68.9426 40.616C68.9426 41.5333 68.7506 42.3333 68.3666 43.016C67.9933 43.688 67.4706 44.2053 66.7986 44.568C66.1373 44.9307 65.3853 45.112 64.5426 45.112C63.7 45.112 62.9426 44.9307 62.2706 44.568C61.6093 44.2053 61.0866 43.688 60.7026 43.016C60.3186 42.3333 60.1266 41.5333 60.1266 40.616C60.1266 39.6987 60.3186 38.8987 60.7026 38.216C61.0866 37.5333 61.6093 37.0107 62.2706 36.648C62.9426 36.2853 63.7 36.104 64.5426 36.104ZM64.5426 37.384C64.02 37.384 63.5346 37.5013 63.0866 37.736C62.6493 37.9707 62.292 38.3333 62.0146 38.824C61.748 39.304 61.6146 39.9013 61.6146 40.616C61.6146 41.32 61.748 41.9173 62.0146 42.408C62.292 42.888 62.6493 43.2453 63.0866 43.48C63.5346 43.7147 64.02 43.832 64.5426 43.832C65.0653 43.832 65.5453 43.7147 65.9826 43.48C66.4306 43.2453 66.788 42.888 67.0546 42.408C67.332 41.9173 67.4706 41.32 67.4706 40.616C67.4706 39.9013 67.332 39.304 67.0546 38.824C66.788 38.3333 66.4306 37.9707 65.9826 37.736C65.5453 37.5013 65.0653 37.384 64.5426 37.384ZM71.6879 43.768H76.3919V45H70.0879V43.832L74.5679 37.448H70.2159V36.216H76.2319V37.4L71.6879 43.768ZM82.6045 36.072C83.6285 36.072 84.4552 36.4027 85.0845 37.064C85.7138 37.7147 86.0285 38.6587 86.0285 39.896V45H84.5725V40.024C84.5725 39.1493 84.3485 38.4773 83.9005 38.008C83.4525 37.5387 82.8445 37.304 82.0765 37.304C81.2765 37.304 80.6365 37.5653 80.1565 38.088C79.6765 38.6 79.4365 39.352 79.4365 40.344V45H77.9805V33.16H79.4365V38.296C79.6605 37.5813 80.0552 37.032 80.6205 36.648C81.1965 36.264 81.8578 36.072 82.6045 36.072ZM88.0058 33.64C88.0058 33.3733 88.0964 33.16 88.2778 33C88.4591 32.8293 88.6991 32.744 88.9978 32.744C89.2964 32.744 89.5364 32.8293 89.7178 33C89.8991 33.16 89.9898 33.3733 89.9898 33.64C89.9898 33.9067 89.8991 34.1253 89.7178 34.296C89.5364 34.456 89.2964 34.536 88.9978 34.536C88.6991 34.536 88.4591 34.456 88.2778 34.296C88.0964 34.1253 88.0058 33.9067 88.0058 33.64ZM89.7178 36.216V45H88.2618V36.216H89.7178ZM96.8746 45L93.5146 41.048V45H92.0586V33.16H93.5146V40.04L96.8266 36.216H98.6026L94.6666 40.584L98.6986 45H96.8746ZM103.965 36.104C104.807 36.104 105.559 36.2853 106.221 36.648C106.893 37.0107 107.415 37.5333 107.789 38.216C108.173 38.8987 108.365 39.6987 108.365 40.616C108.365 41.5333 108.173 42.3333 107.789 43.016C107.415 43.688 106.893 44.2053 106.221 44.568C105.559 44.9307 104.807 45.112 103.965 45.112C103.122 45.112 102.365 44.9307 101.693 44.568C101.031 44.2053 100.509 43.688 100.125 43.016C99.7405 42.3333 99.5485 41.5333 99.5485 40.616C99.5485 39.6987 99.7405 38.8987 100.125 38.216C100.509 37.5333 101.031 37.0107 101.693 36.648C102.365 36.2853 103.122 36.104 103.965 36.104ZM103.965 37.384C103.442 37.384 102.957 37.5013 102.509 37.736C102.071 37.9707 101.714 38.3333 101.437 38.824C101.17 39.304 101.037 39.9013 101.037 40.616C101.037 41.32 101.17 41.9173 101.437 42.408C101.714 42.888 102.071 43.2453 102.509 43.48C102.957 43.7147 103.442 43.832 103.965 43.832C104.487 43.832 104.967 43.7147 105.405 43.48C105.853 43.2453 106.21 42.888 106.477 42.408C106.754 41.9173 106.892 41.32 106.892 40.616C106.892 39.9013 106.754 39.304 106.477 38.824C106.21 38.3333 105.853 37.9707 105.405 37.736C104.967 37.5013 104.487 37.384 103.965 37.384ZM113.862 36.104C114.715 36.104 115.435 36.3173 116.022 36.744C116.619 37.1707 117.035 37.7413 117.27 38.456V33.16H118.726V45H117.27V42.76C117.035 43.4747 116.619 44.0453 116.022 44.472C115.435 44.8987 114.715 45.112 113.862 45.112C113.083 45.112 112.39 44.9307 111.782 44.568C111.174 44.2053 110.694 43.688 110.342 43.016C110 42.3333 109.83 41.5333 109.83 40.616C109.83 39.6987 110 38.8987 110.342 38.216C110.694 37.5333 111.174 37.0107 111.782 36.648C112.39 36.2853 113.083 36.104 113.862 36.104ZM114.278 37.4C113.382 37.4 112.662 37.688 112.118 38.264C111.584 38.8293 111.318 39.6133 111.318 40.616C111.318 41.6187 111.584 42.408 112.118 42.984C112.662 43.5493 113.382 43.832 114.278 43.832C114.854 43.832 115.366 43.6987 115.814 43.432C116.272 43.1653 116.63 42.792 116.886 42.312C117.142 41.8213 117.27 41.256 117.27 40.616C117.27 39.976 117.142 39.4107 116.886 38.92C116.63 38.4293 116.272 38.056 115.814 37.8C115.366 37.5333 114.854 37.4 114.278 37.4ZM129.123 40.12C129.123 40.4293 129.102 40.696 129.059 40.92H122.035C122.067 41.9227 122.35 42.6747 122.883 43.176C123.427 43.6773 124.088 43.928 124.867 43.928C125.571 43.928 126.158 43.752 126.627 43.4C127.107 43.0373 127.4 42.5573 127.507 41.96H129.059C128.952 42.568 128.712 43.112 128.339 43.592C127.976 44.072 127.502 44.4453 126.915 44.712C126.328 44.9787 125.667 45.112 124.931 45.112C124.088 45.112 123.342 44.9307 122.691 44.568C122.04 44.2053 121.528 43.688 121.155 43.016C120.792 42.3333 120.611 41.5333 120.611 40.616C120.611 39.6987 120.792 38.8987 121.155 38.216C121.528 37.5333 122.04 37.0107 122.691 36.648C123.342 36.2853 124.088 36.104 124.931 36.104C125.784 36.104 126.526 36.2853 127.155 36.648C127.795 37.0107 128.28 37.496 128.611 38.104C128.952 38.712 129.123 39.384 129.123 40.12ZM127.651 40.216C127.683 39.5653 127.576 39.0213 127.331 38.584C127.086 38.1467 126.75 37.8213 126.323 37.608C125.896 37.3947 125.432 37.288 124.931 37.288C124.131 37.288 123.459 37.5387 122.915 38.04C122.371 38.5307 122.078 39.256 122.035 40.216H127.651ZM131.875 43.928C132.025 44.3973 132.099 44.8347 132.099 45.24C132.099 45.7947 131.961 46.2373 131.683 46.568C131.406 46.9093 130.99 47.08 130.435 47.08V46.456C130.702 46.456 130.894 46.3813 131.011 46.232C131.139 46.0933 131.203 45.8693 131.203 45.56V45.416H130.387V43.928H131.875ZM140.577 39.304L145.729 45H143.937L139.233 39.736V45H137.777V33.72H139.233V38.952L143.953 33.72H145.729L140.577 39.304ZM155.248 40.12C155.248 40.4293 155.227 40.696 155.184 40.92H148.16C148.192 41.9227 148.475 42.6747 149.008 43.176C149.552 43.6773 150.213 43.928 150.992 43.928C151.696 43.928 152.283 43.752 152.752 43.4C153.232 43.0373 153.525 42.5573 153.632 41.96H155.184C155.077 42.568 154.837 43.112 154.464 43.592C154.101 44.072 153.627 44.4453 153.04 44.712C152.453 44.9787 151.792 45.112 151.056 45.112C150.213 45.112 149.467 44.9307 148.816 44.568C148.165 44.2053 147.653 43.688 147.28 43.016C146.917 42.3333 146.736 41.5333 146.736 40.616C146.736 39.6987 146.917 38.8987 147.28 38.216C147.653 37.5333 148.165 37.0107 148.816 36.648C149.467 36.2853 150.213 36.104 151.056 36.104C151.909 36.104 152.651 36.2853 153.28 36.648C153.92 37.0107 154.405 37.496 154.736 38.104C155.077 38.712 155.248 39.384 155.248 40.12ZM153.776 40.216C153.808 39.5653 153.701 39.0213 153.456 38.584C153.211 38.1467 152.875 37.8213 152.448 37.608C152.021 37.3947 151.557 37.288 151.056 37.288C150.256 37.288 149.584 37.5387 149.04 38.04C148.496 38.5307 148.203 39.256 148.16 40.216H153.776ZM158.608 37.992C158.896 37.384 159.318 36.9147 159.872 36.584C160.427 36.2427 161.088 36.072 161.856 36.072V37.656H161.408C160.587 37.656 159.915 37.8693 159.392 38.296C158.87 38.712 158.608 39.4053 158.608 40.376V45H157.152V36.216H158.608V37.992ZM166.893 36.104C167.746 36.104 168.466 36.3173 169.053 36.744C169.65 37.1707 170.066 37.7413 170.301 38.456V36.216H171.757V45H170.301V42.76C170.066 43.4747 169.65 44.0453 169.053 44.472C168.466 44.8987 167.746 45.112 166.893 45.112C166.114 45.112 165.421 44.9307 164.813 44.568C164.205 44.2053 163.725 43.688 163.373 43.016C163.032 42.3333 162.861 41.5333 162.861 40.616C162.861 39.6987 163.032 38.8987 163.373 38.216C163.725 37.5333 164.205 37.0107 164.813 36.648C165.421 36.2853 166.114 36.104 166.893 36.104ZM167.309 37.4C166.413 37.4 165.693 37.688 165.149 38.264C164.616 38.8293 164.349 39.6133 164.349 40.616C164.349 41.6187 164.616 42.408 165.149 42.984C165.693 43.5493 166.413 43.832 167.309 43.832C167.885 43.832 168.397 43.6987 168.845 43.432C169.304 43.1653 169.661 42.792 169.917 42.312C170.173 41.8213 170.301 41.256 170.301 40.616C170.301 39.976 170.173 39.4107 169.917 38.92C169.661 38.4293 169.304 38.056 168.845 37.8C168.397 37.5333 167.885 37.4 167.309 37.4ZM175.53 33.16V45H174.074V33.16H175.53ZM181.471 36.104C182.324 36.104 183.044 36.3173 183.631 36.744C184.228 37.1707 184.644 37.7413 184.879 38.456V36.216H186.335V45H184.879V42.76C184.644 43.4747 184.228 44.0453 183.631 44.472C183.044 44.8987 182.324 45.112 181.471 45.112C180.692 45.112 179.999 44.9307 179.391 44.568C178.783 44.2053 178.303 43.688 177.951 43.016C177.61 42.3333 177.439 41.5333 177.439 40.616C177.439 39.6987 177.61 38.8987 177.951 38.216C178.303 37.5333 178.783 37.0107 179.391 36.648C179.999 36.2853 180.692 36.104 181.471 36.104ZM181.887 37.4C180.991 37.4 180.271 37.688 179.727 38.264C179.194 38.8293 178.927 39.6133 178.927 40.616C178.927 41.6187 179.194 42.408 179.727 42.984C180.271 43.5493 180.991 43.832 181.887 43.832C182.463 43.832 182.975 43.6987 183.423 43.432C183.882 43.1653 184.239 42.792 184.495 42.312C184.751 41.8213 184.879 41.256 184.879 40.616C184.879 39.976 184.751 39.4107 184.495 38.92C184.239 38.4293 183.882 38.056 183.423 37.8C182.975 37.5333 182.463 37.4 181.887 37.4Z" fill="white"/>
<path d="M10.15 38C10.15 38 0 24.7615 0 19.15C-1.9862e-08 17.8171 0.262538 16.4972 0.772623 15.2658C1.28271 14.0343 2.03035 12.9154 2.97287 11.9729C3.91538 11.0304 5.03431 10.2827 6.26576 9.77262C7.49722 9.26254 8.81708 9 10.15 9C11.4829 9 12.8028 9.26254 14.0342 9.77262C15.2657 10.2827 16.3846 11.0304 17.3271 11.9729C18.2696 12.9154 19.0173 14.0343 19.5274 15.2658C20.0375 16.4972 20.3 17.8171 20.3 19.15C20.3 24.7615 10.15 38 10.15 38ZM10.15 22.05C10.9191 22.05 11.6568 21.7445 12.2006 21.2006C12.7445 20.6568 13.05 19.9191 13.05 19.15C13.05 18.3809 12.7445 17.6432 12.2006 17.0994C11.6568 16.5555 10.9191 16.25 10.15 16.25C9.38087 16.25 8.64325 16.5555 8.09939 17.0994C7.55554 17.6432 7.25 18.3809 7.25 19.15C7.25 19.9191 7.55554 20.6568 8.09939 21.2006C8.64325 21.7445 9.38087 22.05 10.15 22.05Z" fill="white"/>
</svg>
