<svg width="193" height="54" viewBox="0 0 193 54" fill="none" xmlns="http://www.w3.org/2000/svg">
<path d="M20.7801 30.5793L17.7439 29.7485C17.387 29.6496 17.0126 29.6305 16.6485 29.6924C16.2845 29.7544 15.9405 29.8958 15.6422 30.1061L13.0602 31.9249C9.87575 29.6743 7.49898 26.5063 6.27211 22.8769L8.86813 21.0483C9.47153 20.6233 9.83898 19.9552 9.86764 19.2215L9.98504 16.1904C10.0071 15.6035 9.80621 15.0273 9.42065 14.5713C9.03509 14.1154 8.49178 13.8116 7.89417 13.7179L5.78935 13.3853C4.41452 13.168 3.09546 14.0971 2.96978 15.4448C2.02106 25.6299 9.05824 34.9956 19.3374 37.2615C20.6992 37.5614 22.0183 36.6323 22.2291 35.2981L22.5519 33.2555C22.7526 32.0649 21.9865 30.9152 20.7801 30.5793Z" fill="white"/>
<line x1="39.3923" y1="3" x2="39.3923" y2="50.0769" stroke="white" stroke-width="0.784615"/>
<path d="M60.552 6.72V7.904H55.624V11.808H59.8V12.944H55.624V18H54.168V6.72H60.552ZM66.2614 9.104C67.104 9.104 67.856 9.28533 68.5174 9.648C69.1894 10.0107 69.712 10.5333 70.0854 11.216C70.4694 11.8987 70.6614 12.6987 70.6614 13.616C70.6614 14.5333 70.4694 15.3333 70.0854 16.016C69.712 16.688 69.1894 17.2053 68.5174 17.568C67.856 17.9307 67.104 18.112 66.2614 18.112C65.4187 18.112 64.6614 17.9307 63.9894 17.568C63.328 17.2053 62.8054 16.688 62.4214 16.016C62.0374 15.3333 61.8454 14.5333 61.8454 13.616C61.8454 12.6987 62.0374 11.8987 62.4214 11.216C62.8054 10.5333 63.328 10.0107 63.9894 9.648C64.6614 9.28533 65.4187 9.104 66.2614 9.104ZM66.2614 10.384C65.7387 10.384 65.2534 10.5013 64.8054 10.736C64.368 10.9707 64.0107 11.3333 63.7334 11.824C63.4667 12.304 63.3334 12.9013 63.3334 13.616C63.3334 14.32 63.4667 14.9173 63.7334 15.408C64.0107 15.888 64.368 16.2453 64.8054 16.48C65.2534 16.7147 65.7387 16.832 66.2614 16.832C66.784 16.832 67.264 16.7147 67.7014 16.48C68.1494 16.2453 68.5067 15.888 68.7734 15.408C69.0507 14.9173 69.1894 14.32 69.1894 13.616C69.1894 12.9013 69.0507 12.304 68.7734 11.824C68.5067 11.3333 68.1494 10.9707 67.7014 10.736C67.264 10.5013 66.784 10.384 66.2614 10.384ZM74.0146 10.992C74.3026 10.384 74.724 9.91467 75.2786 9.584C75.8333 9.24267 76.4946 9.072 77.2626 9.072V10.656H76.8146C75.9933 10.656 75.3213 10.8693 74.7986 11.296C74.276 11.712 74.0146 12.4053 74.0146 13.376V18H72.5586V9.216H74.0146V10.992ZM93.9484 6.912V18H92.4924V9.152L88.9564 18H87.6604L84.1084 9.184V18H82.6524V6.912H84.3964L88.3324 16.224L92.2044 6.912H93.9484ZM100.261 9.104C101.104 9.104 101.856 9.28533 102.517 9.648C103.189 10.0107 103.712 10.5333 104.085 11.216C104.469 11.8987 104.661 12.6987 104.661 13.616C104.661 14.5333 104.469 15.3333 104.085 16.016C103.712 16.688 103.189 17.2053 102.517 17.568C101.856 17.9307 101.104 18.112 100.261 18.112C99.4187 18.112 98.6614 17.9307 97.9894 17.568C97.328 17.2053 96.8054 16.688 96.4214 16.016C96.0374 15.3333 95.8454 14.5333 95.8454 13.616C95.8454 12.6987 96.0374 11.8987 96.4214 11.216C96.8054 10.5333 97.328 10.0107 97.9894 9.648C98.6614 9.28533 99.4187 9.104 100.261 9.104ZM100.261 10.384C99.7387 10.384 99.2534 10.5013 98.8054 10.736C98.368 10.9707 98.0107 11.3333 97.7334 11.824C97.4667 12.304 97.3334 12.9013 97.3334 13.616C97.3334 14.32 97.4667 14.9173 97.7334 15.408C98.0107 15.888 98.368 16.2453 98.8054 16.48C99.2534 16.7147 99.7387 16.832 100.261 16.832C100.784 16.832 101.264 16.7147 101.701 16.48C102.149 16.2453 102.507 15.888 102.773 15.408C103.051 14.9173 103.189 14.32 103.189 13.616C103.189 12.9013 103.051 12.304 102.773 11.824C102.507 11.3333 102.149 10.9707 101.701 10.736C101.264 10.5013 100.784 10.384 100.261 10.384ZM108.015 10.992C108.303 10.384 108.724 9.91467 109.279 9.584C109.833 9.24267 110.495 9.072 111.263 9.072V10.656H110.815C109.993 10.656 109.321 10.8693 108.799 11.296C108.276 11.712 108.015 12.4053 108.015 13.376V18H106.559V9.216H108.015V10.992ZM120.779 13.12C120.779 13.4293 120.758 13.696 120.715 13.92H113.691C113.723 14.9227 114.006 15.6747 114.539 16.176C115.083 16.6773 115.745 16.928 116.523 16.928C117.227 16.928 117.814 16.752 118.283 16.4C118.763 16.0373 119.057 15.5573 119.163 14.96H120.715C120.609 15.568 120.369 16.112 119.995 16.592C119.633 17.072 119.158 17.4453 118.571 17.712C117.985 17.9787 117.323 18.112 116.587 18.112C115.745 18.112 114.998 17.9307 114.347 17.568C113.697 17.2053 113.185 16.688 112.811 16.016C112.449 15.3333 112.267 14.5333 112.267 13.616C112.267 12.6987 112.449 11.8987 112.811 11.216C113.185 10.5333 113.697 10.0107 114.347 9.648C114.998 9.28533 115.745 9.104 116.587 9.104C117.441 9.104 118.182 9.28533 118.811 9.648C119.451 10.0107 119.937 10.496 120.267 11.104C120.609 11.712 120.779 12.384 120.779 13.12ZM119.307 13.216C119.339 12.5653 119.233 12.0213 118.987 11.584C118.742 11.1467 118.406 10.8213 117.979 10.608C117.553 10.3947 117.089 10.288 116.587 10.288C115.787 10.288 115.115 10.5387 114.571 11.04C114.027 11.5307 113.734 12.256 113.691 13.216H119.307ZM128.093 7.904V11.76H132.381V12.88H128.093V16.816H132.861V18H126.637V6.72H132.861V7.904H128.093ZM139.355 9.072C140.379 9.072 141.205 9.40267 141.835 10.064C142.464 10.7147 142.779 11.6587 142.779 12.896V18H141.323V13.024C141.323 12.1493 141.099 11.4773 140.651 11.008C140.203 10.5387 139.595 10.304 138.827 10.304C138.027 10.304 137.387 10.5653 136.907 11.088C136.427 11.6 136.187 12.352 136.187 13.344V18H134.731V9.216H136.187V11.296C136.411 10.5813 136.805 10.032 137.371 9.648C137.947 9.264 138.608 9.072 139.355 9.072ZM148.708 9.136C149.518 9.136 150.206 9.33333 150.772 9.728C151.348 10.112 151.764 10.6347 152.02 11.296V9.216H153.476V22.16H152.02V15.856C151.753 16.5493 151.332 17.0987 150.756 17.504C150.19 17.9093 149.508 18.112 148.708 18.112C147.929 18.112 147.225 17.9307 146.596 17.568C145.966 17.1947 145.47 16.672 145.108 16C144.756 15.3173 144.58 14.528 144.58 13.632C144.58 12.736 144.756 11.952 145.108 11.28C145.47 10.5973 145.966 10.0693 146.596 9.696C147.225 9.32267 147.929 9.136 148.708 9.136ZM149.028 10.4C148.153 10.4 147.438 10.688 146.884 11.264C146.34 11.8293 146.068 12.6187 146.068 13.632C146.068 14.6453 146.34 15.4347 146.884 16C147.428 16.5547 148.142 16.832 149.028 16.832C149.582 16.832 150.084 16.704 150.532 16.448C150.99 16.1813 151.353 15.808 151.62 15.328C151.886 14.8373 152.02 14.2667 152.02 13.616C152.02 12.9653 151.886 12.4 151.62 11.92C151.353 11.4293 150.99 11.056 150.532 10.8C150.084 10.5333 149.582 10.4 149.028 10.4ZM163.601 9.216V18H162.145V15.936C161.921 16.6507 161.521 17.2 160.945 17.584C160.38 17.9573 159.718 18.144 158.961 18.144C157.948 18.144 157.126 17.8187 156.497 17.168C155.868 16.5067 155.553 15.5627 155.553 14.336V9.216H157.009V14.192C157.009 15.0667 157.233 15.744 157.681 16.224C158.129 16.6933 158.737 16.928 159.505 16.928C160.305 16.928 160.945 16.672 161.425 16.16C161.905 15.6373 162.145 14.88 162.145 13.888V9.216H163.601ZM165.678 6.64C165.678 6.37333 165.768 6.16 165.95 6C166.131 5.82933 166.371 5.744 166.67 5.744C166.968 5.744 167.208 5.82933 167.39 6C167.571 6.16 167.662 6.37333 167.662 6.64C167.662 6.90667 167.571 7.12533 167.39 7.296C167.208 7.456 166.968 7.536 166.67 7.536C166.371 7.536 166.131 7.456 165.95 7.296C165.768 7.12533 165.678 6.90667 165.678 6.64ZM167.39 9.216V18H165.934V9.216H167.39ZM171.187 10.992C171.475 10.384 171.896 9.91467 172.451 9.584C173.005 9.24267 173.667 9.072 174.435 9.072V10.656H173.987C173.165 10.656 172.493 10.8693 171.971 11.296C171.448 11.712 171.187 12.4053 171.187 13.376V18H169.731V9.216H171.187V10.992ZM183.951 13.12C183.951 13.4293 183.93 13.696 183.887 13.92H176.863C176.895 14.9227 177.178 15.6747 177.711 16.176C178.255 16.6773 178.916 16.928 179.695 16.928C180.399 16.928 180.986 16.752 181.455 16.4C181.935 16.0373 182.228 15.5573 182.335 14.96H183.887C183.78 15.568 183.54 16.112 183.167 16.592C182.804 17.072 182.33 17.4453 181.743 17.712C181.156 17.9787 180.495 18.112 179.759 18.112C178.916 18.112 178.17 17.9307 177.519 17.568C176.868 17.2053 176.356 16.688 175.983 16.016C175.62 15.3333 175.439 14.5333 175.439 13.616C175.439 12.6987 175.62 11.8987 175.983 11.216C176.356 10.5333 176.868 10.0107 177.519 9.648C178.17 9.28533 178.916 9.104 179.759 9.104C180.612 9.104 181.354 9.28533 181.983 9.648C182.623 10.0107 183.108 10.496 183.439 11.104C183.78 11.712 183.951 12.384 183.951 13.12ZM182.479 13.216C182.511 12.5653 182.404 12.0213 182.159 11.584C181.914 11.1467 181.578 10.8213 181.151 10.608C180.724 10.3947 180.26 10.288 179.759 10.288C178.959 10.288 178.287 10.5387 177.743 11.04C177.199 11.5307 176.906 12.256 176.863 13.216H182.479ZM188.608 9.104C189.6 9.104 190.394 9.36533 190.992 9.888C191.6 10.4 191.968 11.0933 192.096 11.968H190.704C190.64 11.4453 190.421 11.0187 190.048 10.688C189.685 10.3467 189.194 10.176 188.576 10.176C188.053 10.176 187.642 10.304 187.344 10.56C187.056 10.8053 186.912 11.1413 186.912 11.568C186.912 11.888 187.008 12.1493 187.2 12.352C187.402 12.544 187.648 12.6933 187.936 12.8C188.234 12.896 188.64 13.0027 189.152 13.12C189.802 13.2693 190.325 13.424 190.72 13.584C191.125 13.7333 191.466 13.9787 191.744 14.32C192.032 14.6613 192.176 15.12 192.176 15.696C192.176 16.4107 191.904 16.992 191.36 17.44C190.826 17.888 190.112 18.112 189.216 18.112C188.17 18.112 187.317 17.8613 186.656 17.36C185.994 16.8587 185.605 16.16 185.488 15.264H186.896C186.949 15.7973 187.178 16.2293 187.584 16.56C188 16.8907 188.544 17.056 189.216 17.056C189.717 17.056 190.106 16.928 190.384 16.672C190.672 16.416 190.816 16.08 190.816 15.664C190.816 15.3227 190.714 15.0507 190.512 14.848C190.309 14.6453 190.058 14.4907 189.76 14.384C189.461 14.2773 189.05 14.1653 188.528 14.048C187.877 13.8987 187.354 13.7493 186.96 13.6C186.576 13.4507 186.245 13.216 185.968 12.896C185.701 12.5653 185.568 12.1227 185.568 11.568C185.568 10.832 185.84 10.24 186.384 9.792C186.928 9.33333 187.669 9.104 188.608 9.104Z" fill="white"/>
<path d="M61.688 42.816H58.312V46.224H56.888V42.816H53.528V41.488H56.888V38.064H58.312V41.488H61.688V42.816ZM64.7788 44.832C64.8748 45.504 65.1094 46.0213 65.4828 46.384C65.8561 46.7467 66.3681 46.928 67.0188 46.928C67.9148 46.928 68.5921 46.5813 69.0508 45.888C69.5094 45.1947 69.7388 44.096 69.7388 42.592C69.7388 42.304 69.7334 42.0853 69.7228 41.936C69.5734 42.576 69.2108 43.088 68.6348 43.472C68.0588 43.856 67.3814 44.048 66.6028 44.048C65.4828 44.048 64.6028 43.712 63.9628 43.04C63.3228 42.368 63.0028 41.4293 63.0028 40.224C63.0028 39.52 63.1414 38.88 63.4188 38.304C63.6961 37.728 64.1174 37.2747 64.6828 36.944C65.2588 36.6027 65.9681 36.432 66.8108 36.432C68.4321 36.432 69.5414 36.9333 70.1388 37.936C70.7468 38.928 71.0508 40.2933 71.0508 42.032C71.0508 44.016 70.7414 45.5307 70.1228 46.576C69.5041 47.6107 68.4694 48.128 67.0188 48.128C65.9414 48.128 65.0934 47.824 64.4748 47.216C63.8668 46.5973 63.5094 45.8027 63.4028 44.832H64.7788ZM69.5788 40.448C69.5788 39.68 69.3494 39.0293 68.8908 38.496C68.4428 37.9627 67.7654 37.696 66.8588 37.696C66.1121 37.696 65.5148 37.92 65.0668 38.368C64.6188 38.816 64.3948 39.44 64.3948 40.24C64.3948 41.0933 64.6188 41.7493 65.0668 42.208C65.5148 42.6667 66.1281 42.896 66.9068 42.896C67.3548 42.896 67.7814 42.8053 68.1868 42.624C68.6028 42.4427 68.9388 42.1653 69.1948 41.792C69.4508 41.4187 69.5788 40.9707 69.5788 40.448ZM72.1611 38.08V36.72H75.3931V48H73.8571V38.08H72.1611ZM81.636 39.376C81.636 38.8213 81.7853 38.3147 82.084 37.856C82.3827 37.3973 82.8253 37.0347 83.412 36.768C83.9987 36.5013 84.6973 36.368 85.508 36.368C86.3187 36.368 87.012 36.5013 87.588 36.768C88.1747 37.0347 88.6173 37.3973 88.916 37.856C89.2147 38.3147 89.364 38.8213 89.364 39.376C89.364 40.0053 89.1933 40.5493 88.852 41.008C88.5107 41.4667 87.9933 41.792 87.3 41.984C88.0467 42.1867 88.628 42.5387 89.044 43.04C89.46 43.5413 89.668 44.16 89.668 44.896C89.668 45.9627 89.2893 46.8 88.532 47.408C87.7747 48.016 86.7667 48.32 85.508 48.32C84.2493 48.32 83.2413 48.016 82.484 47.408C81.7267 46.8 81.348 45.9627 81.348 44.896C81.348 44.16 81.5507 43.5413 81.956 43.04C82.372 42.5387 82.9533 42.1867 83.7 41.984C83.0067 41.792 82.4893 41.4667 82.148 41.008C81.8067 40.5493 81.636 40.0053 81.636 39.376ZM83.076 39.584C83.076 40.224 83.2947 40.72 83.732 41.072C84.1693 41.4133 84.7613 41.584 85.508 41.584C86.2547 41.584 86.8413 41.4133 87.268 41.072C87.7053 40.72 87.924 40.224 87.924 39.584C87.924 38.944 87.7053 38.4533 87.268 38.112C86.8307 37.76 86.244 37.584 85.508 37.584C84.772 37.584 84.18 37.76 83.732 38.112C83.2947 38.4533 83.076 38.944 83.076 39.584ZM82.772 44.816C82.772 45.5413 83.0173 46.1067 83.508 46.512C83.9987 46.9067 84.6653 47.104 85.508 47.104C86.34 47.104 87.0013 46.9013 87.492 46.496C87.9827 46.0907 88.228 45.5307 88.228 44.816C88.228 44.0907 87.972 43.5413 87.46 43.168C86.948 42.7947 86.2973 42.608 85.508 42.608C84.708 42.608 84.052 42.7947 83.54 43.168C83.028 43.5413 82.772 44.0907 82.772 44.816ZM92.308 46.528C91.7107 45.5147 91.412 44.1013 91.412 42.288C91.412 40.4853 91.7107 39.0827 92.308 38.08C92.9053 37.0667 93.94 36.56 95.412 36.56C96.884 36.56 97.9187 37.0667 98.516 38.08C99.124 39.0933 99.428 40.496 99.428 42.288C99.428 44.1013 99.124 45.5147 98.516 46.528C97.9187 47.5413 96.884 48.048 95.412 48.048C93.94 48.048 92.9053 47.5413 92.308 46.528ZM97.78 44.624C97.9187 43.9947 97.988 43.216 97.988 42.288C97.988 41.3707 97.9187 40.6027 97.78 39.984C97.652 39.3653 97.4013 38.8747 97.028 38.512C96.6547 38.1387 96.116 37.952 95.412 37.952C94.7187 37.952 94.1853 38.1387 93.812 38.512C93.4387 38.8747 93.1827 39.3653 93.044 39.984C92.916 40.6027 92.852 41.3707 92.852 42.288C92.852 43.216 92.916 43.9947 93.044 44.624C93.1827 45.2427 93.4387 45.7387 93.812 46.112C94.1853 46.4853 94.7187 46.672 95.412 46.672C96.116 46.672 96.6547 46.4853 97.028 46.112C97.4013 45.7387 97.652 45.2427 97.78 44.624ZM107.944 37.776L103.672 48H102.136L106.472 37.92H100.552V36.656H107.944V37.776ZM116.934 37.872H111.142V41.648C111.409 41.2853 111.793 40.9973 112.294 40.784C112.795 40.5707 113.345 40.464 113.942 40.464C114.742 40.464 115.403 40.6347 115.926 40.976C116.459 41.3067 116.849 41.7493 117.094 42.304C117.35 42.848 117.478 43.456 117.478 44.128C117.478 45.2907 117.153 46.24 116.502 46.976C115.851 47.712 114.897 48.08 113.638 48.08C112.507 48.08 111.585 47.776 110.87 47.168C110.155 46.5493 109.755 45.7227 109.67 44.688H111.11C111.227 45.3493 111.499 45.8667 111.926 46.24C112.363 46.6027 112.913 46.784 113.574 46.784C114.395 46.784 115.014 46.5387 115.43 46.048C115.846 45.5573 116.054 44.912 116.054 44.112C116.054 43.3333 115.841 42.7253 115.414 42.288C114.987 41.8507 114.385 41.632 113.606 41.632C113.051 41.632 112.566 41.7547 112.15 42C111.734 42.2347 111.419 42.5547 111.206 42.96H109.798V36.576H116.934V37.872ZM124.042 46.528C123.445 45.5147 123.146 44.1013 123.146 42.288C123.146 40.4853 123.445 39.0827 124.042 38.08C124.64 37.0667 125.674 36.56 127.146 36.56C128.618 36.56 129.653 37.0667 130.25 38.08C130.858 39.0933 131.162 40.496 131.162 42.288C131.162 44.1013 130.858 45.5147 130.25 46.528C129.653 47.5413 128.618 48.048 127.146 48.048C125.674 48.048 124.64 47.5413 124.042 46.528ZM129.514 44.624C129.653 43.9947 129.722 43.216 129.722 42.288C129.722 41.3707 129.653 40.6027 129.514 39.984C129.386 39.3653 129.136 38.8747 128.762 38.512C128.389 38.1387 127.85 37.952 127.146 37.952C126.453 37.952 125.92 38.1387 125.546 38.512C125.173 38.8747 124.917 39.3653 124.778 39.984C124.65 40.6027 124.586 41.3707 124.586 42.288C124.586 43.216 124.65 43.9947 124.778 44.624C124.917 45.2427 125.173 45.7387 125.546 46.112C125.92 46.4853 126.453 46.672 127.146 46.672C127.85 46.672 128.389 46.4853 128.762 46.112C129.136 45.7387 129.386 45.2427 129.514 44.624ZM132.559 45.408V44.192L138.351 36.64H139.919V44.144H141.583V45.408H139.919V48H138.447V45.408H132.559ZM138.543 38.416L134.095 44.144H138.543V38.416ZM143.792 46.528C143.195 45.5147 142.896 44.1013 142.896 42.288C142.896 40.4853 143.195 39.0827 143.792 38.08C144.39 37.0667 145.424 36.56 146.896 36.56C148.368 36.56 149.403 37.0667 150 38.08C150.608 39.0933 150.912 40.496 150.912 42.288C150.912 44.1013 150.608 45.5147 150 46.528C149.403 47.5413 148.368 48.048 146.896 48.048C145.424 48.048 144.39 47.5413 143.792 46.528ZM149.264 44.624C149.403 43.9947 149.472 43.216 149.472 42.288C149.472 41.3707 149.403 40.6027 149.264 39.984C149.136 39.3653 148.886 38.8747 148.512 38.512C148.139 38.1387 147.6 37.952 146.896 37.952C146.203 37.952 145.67 38.1387 145.296 38.512C144.923 38.8747 144.667 39.3653 144.528 39.984C144.4 40.6027 144.336 41.3707 144.336 42.288C144.336 43.216 144.4 43.9947 144.528 44.624C144.667 45.2427 144.923 45.7387 145.296 46.112C145.67 46.4853 146.203 46.672 146.896 46.672C147.6 46.672 148.139 46.4853 148.512 46.112C148.886 45.7387 149.136 45.2427 149.264 44.624ZM160.55 36.416C161.275 36.416 161.899 36.544 162.422 36.8C162.944 37.056 163.339 37.408 163.606 37.856C163.872 38.304 164.006 38.8107 164.006 39.376C164.006 40.08 163.798 40.672 163.382 41.152C162.976 41.632 162.379 41.92 161.59 42.016V42.112C162.411 42.3253 163.051 42.656 163.51 43.104C163.979 43.552 164.214 44.1707 164.214 44.96C164.214 45.888 163.904 46.6453 163.286 47.232C162.667 47.8187 161.776 48.112 160.614 48.112C159.451 48.112 158.507 47.8133 157.782 47.216C157.067 46.608 156.646 45.7227 156.518 44.56H157.958C158.054 45.264 158.32 45.824 158.758 46.24C159.206 46.656 159.808 46.864 160.566 46.864C161.28 46.864 161.83 46.6827 162.214 46.32C162.598 45.9467 162.79 45.4667 162.79 44.88C162.79 44.176 162.512 43.6427 161.958 43.28C161.414 42.9067 160.635 42.72 159.622 42.72H159.238V41.504H159.622C161.584 41.504 162.566 40.848 162.566 39.536C162.566 38.96 162.384 38.5013 162.022 38.16C161.659 37.8187 161.158 37.648 160.518 37.648C159.878 37.648 159.339 37.8347 158.902 38.208C158.464 38.5707 158.208 39.1093 158.134 39.824H156.71C156.784 38.7573 157.152 37.9253 157.814 37.328C158.486 36.72 159.398 36.416 160.55 36.416ZM169.972 36.416C170.697 36.416 171.321 36.544 171.844 36.8C172.366 37.056 172.761 37.408 173.028 37.856C173.294 38.304 173.428 38.8107 173.428 39.376C173.428 40.08 173.22 40.672 172.804 41.152C172.398 41.632 171.801 41.92 171.012 42.016V42.112C171.833 42.3253 172.473 42.656 172.932 43.104C173.401 43.552 173.635 44.1707 173.635 44.96C173.635 45.888 173.326 46.6453 172.708 47.232C172.089 47.8187 171.198 48.112 170.036 48.112C168.873 48.112 167.929 47.8133 167.204 47.216C166.489 46.608 166.068 45.7227 165.94 44.56H167.38C167.476 45.264 167.742 45.824 168.18 46.24C168.628 46.656 169.23 46.864 169.988 46.864C170.702 46.864 171.252 46.6827 171.636 46.32C172.02 45.9467 172.212 45.4667 172.212 44.88C172.212 44.176 171.934 43.6427 171.38 43.28C170.836 42.9067 170.057 42.72 169.044 42.72H168.66V41.504H169.044C171.006 41.504 171.988 40.848 171.988 39.536C171.988 38.96 171.806 38.5013 171.444 38.16C171.081 37.8187 170.58 37.648 169.94 37.648C169.3 37.648 168.761 37.8347 168.324 38.208C167.886 38.5707 167.63 39.1093 167.556 39.824H166.132C166.206 38.7573 166.574 37.9253 167.236 37.328C167.908 36.72 168.82 36.416 169.972 36.416ZM176.417 46.528C175.82 45.5147 175.521 44.1013 175.521 42.288C175.521 40.4853 175.82 39.0827 176.417 38.08C177.015 37.0667 178.049 36.56 179.521 36.56C180.993 36.56 182.028 37.0667 182.625 38.08C183.233 39.0933 183.537 40.496 183.537 42.288C183.537 44.1013 183.233 45.5147 182.625 46.528C182.028 47.5413 180.993 48.048 179.521 48.048C178.049 48.048 177.015 47.5413 176.417 46.528ZM181.889 44.624C182.028 43.9947 182.097 43.216 182.097 42.288C182.097 41.3707 182.028 40.6027 181.889 39.984C181.761 39.3653 181.511 38.8747 181.137 38.512C180.764 38.1387 180.225 37.952 179.521 37.952C178.828 37.952 178.295 38.1387 177.921 38.512C177.548 38.8747 177.292 39.3653 177.153 39.984C177.025 40.6027 176.961 41.3707 176.961 42.288C176.961 43.216 177.025 43.9947 177.153 44.624C177.292 45.2427 177.548 45.7387 177.921 46.112C178.295 46.4853 178.828 46.672 179.521 46.672C180.225 46.672 180.764 46.4853 181.137 46.112C181.511 45.7387 181.761 45.2427 181.889 44.624Z" fill="white"/>
</svg>
