<svg width="21" height="20" viewBox="0 0 21 20" fill="none" xmlns="http://www.w3.org/2000/svg">
<path d="M16.767 19.9998C15.895 19.9998 14.67 19.6846 12.8357 18.6605C10.6051 17.4105 8.87975 16.2565 6.66121 14.0453C4.5222 11.9091 3.48128 10.5261 2.02445 7.87691C0.378641 4.8858 0.659197 3.31793 0.972812 2.64783C1.34629 1.84693 1.89757 1.36791 2.61013 0.892454C3.01486 0.627466 3.44316 0.400313 3.88961 0.213874C3.93428 0.194677 3.97583 0.176374 4.01291 0.159856C4.23405 0.0603008 4.56911 -0.0901474 4.99352 0.0705688C5.27675 0.17682 5.52961 0.394233 5.92543 0.784863C6.73716 1.58487 7.84643 3.36659 8.25565 4.2416C8.53039 4.83134 8.71222 5.22063 8.71267 5.65724C8.71267 6.16841 8.45534 6.56261 8.14307 6.98806C8.08454 7.06797 8.02647 7.14431 7.97018 7.21842C7.6302 7.66486 7.5556 7.79388 7.60474 8.02424C7.70436 8.48719 8.4473 9.86533 9.66825 11.0828C10.8892 12.3002 12.2285 12.9957 12.6936 13.0948C12.934 13.1462 13.0657 13.0685 13.5268 12.7167C13.5929 12.6663 13.6608 12.614 13.7318 12.5618C14.2081 12.2078 14.5842 11.9573 15.0837 11.9573H15.0864C15.5211 11.9573 15.8932 12.1457 16.5097 12.4564C17.3138 12.8618 19.1504 13.956 19.9559 14.7681C20.3477 15.1627 20.5661 15.4145 20.6729 15.6971C20.8337 16.1225 20.6823 16.456 20.5836 16.6792C20.567 16.7163 20.5487 16.7569 20.5295 16.802C20.3415 17.2474 20.1128 17.6745 19.8464 18.0779C19.3715 18.7878 18.8904 19.3373 18.0872 19.711C17.6747 19.906 17.2233 20.0047 16.767 19.9998Z" fill="white"/>
</svg>
