<svg width="191" height="54" viewBox="0 0 191 54" fill="none" xmlns="http://www.w3.org/2000/svg">
<line x1="43.3923" y1="3" x2="43.3923" y2="50.0769" stroke="white" stroke-width="0.784615"/>
<path d="M59.624 7.904V11.76H63.912V12.88H59.624V16.816H64.392V18H58.168V6.72H64.392V7.904H59.624ZM77.0618 9.072C78.0858 9.072 78.9071 9.40267 79.5258 10.064C80.1551 10.7147 80.4698 11.6587 80.4698 12.896V18H79.0138V13.024C79.0138 12.16 78.8004 11.4987 78.3738 11.04C77.9578 10.5813 77.3818 10.352 76.6458 10.352C75.8778 10.352 75.2591 10.608 74.7898 11.12C74.3311 11.6213 74.1018 12.3627 74.1018 13.344V18H72.6458V13.024C72.6458 12.16 72.4324 11.4987 72.0058 11.04C71.5791 10.5813 71.0031 10.352 70.2778 10.352C69.4991 10.352 68.8751 10.608 68.4058 11.12C67.9471 11.6213 67.7178 12.3627 67.7178 13.344V18H66.2618V9.216H67.7178V11.216C67.9311 10.5227 68.3098 9.99467 68.8538 9.632C69.4084 9.25867 70.0431 9.072 70.7578 9.072C71.5044 9.072 72.1498 9.264 72.6938 9.648C73.2484 10.0213 73.6431 10.576 73.8778 11.312C74.1231 10.5973 74.5338 10.048 75.1098 9.664C75.6858 9.26933 76.3364 9.072 77.0618 9.072ZM86.3305 9.104C87.1838 9.104 87.9038 9.31733 88.4905 9.744C89.0878 10.1707 89.5038 10.7413 89.7385 11.456V9.216H91.1945V18H89.7385V15.76C89.5038 16.4747 89.0878 17.0453 88.4905 17.472C87.9038 17.8987 87.1838 18.112 86.3305 18.112C85.5518 18.112 84.8585 17.9307 84.2505 17.568C83.6425 17.2053 83.1625 16.688 82.8105 16.016C82.4692 15.3333 82.2985 14.5333 82.2985 13.616C82.2985 12.6987 82.4692 11.8987 82.8105 11.216C83.1625 10.5333 83.6425 10.0107 84.2505 9.648C84.8585 9.28533 85.5518 9.104 86.3305 9.104ZM86.7465 10.4C85.8505 10.4 85.1305 10.688 84.5865 11.264C84.0532 11.8293 83.7865 12.6133 83.7865 13.616C83.7865 14.6187 84.0532 15.408 84.5865 15.984C85.1305 16.5493 85.8505 16.832 86.7465 16.832C87.3225 16.832 87.8345 16.6987 88.2825 16.432C88.7412 16.1653 89.0985 15.792 89.3545 15.312C89.6105 14.8213 89.7385 14.256 89.7385 13.616C89.7385 12.976 89.6105 12.4107 89.3545 11.92C89.0985 11.4293 88.7412 11.056 88.2825 10.8C87.8345 10.5333 87.3225 10.4 86.7465 10.4ZM93.2558 6.64C93.2558 6.37333 93.3464 6.16 93.5278 6C93.7091 5.82933 93.9491 5.744 94.2478 5.744C94.5464 5.744 94.7864 5.82933 94.9678 6C95.1491 6.16 95.2398 6.37333 95.2398 6.64C95.2398 6.90667 95.1491 7.12533 94.9678 7.296C94.7864 7.456 94.5464 7.536 94.2478 7.536C93.9491 7.536 93.7091 7.456 93.5278 7.296C93.3464 7.12533 93.2558 6.90667 93.2558 6.64ZM94.9678 9.216V18H93.5118V9.216H94.9678ZM98.7646 6.16V18H97.3086V6.16H98.7646ZM106.435 6.72V13.488C106.435 14.5973 106.68 15.4187 107.171 15.952C107.661 16.4747 108.339 16.736 109.203 16.736C110.056 16.736 110.723 16.4693 111.203 15.936C111.683 15.4027 111.923 14.5867 111.923 13.488V6.72H113.379V13.488C113.379 15.024 112.995 16.1813 112.227 16.96C111.469 17.728 110.451 18.112 109.171 18.112C107.901 18.112 106.883 17.728 106.115 16.96C105.357 16.1813 104.979 15.024 104.979 13.488V6.72H106.435ZM118.389 9.104C119.381 9.104 120.175 9.36533 120.773 9.888C121.381 10.4 121.749 11.0933 121.877 11.968H120.485C120.421 11.4453 120.202 11.0187 119.829 10.688C119.466 10.3467 118.975 10.176 118.357 10.176C117.834 10.176 117.423 10.304 117.125 10.56C116.837 10.8053 116.693 11.1413 116.693 11.568C116.693 11.888 116.789 12.1493 116.981 12.352C117.183 12.544 117.429 12.6933 117.717 12.8C118.015 12.896 118.421 13.0027 118.933 13.12C119.583 13.2693 120.106 13.424 120.501 13.584C120.906 13.7333 121.247 13.9787 121.525 14.32C121.813 14.6613 121.957 15.12 121.957 15.696C121.957 16.4107 121.685 16.992 121.141 17.44C120.607 17.888 119.893 18.112 118.997 18.112C117.951 18.112 117.098 17.8613 116.437 17.36C115.775 16.8587 115.386 16.16 115.269 15.264H116.677C116.73 15.7973 116.959 16.2293 117.365 16.56C117.781 16.8907 118.325 17.056 118.997 17.056C119.498 17.056 119.887 16.928 120.165 16.672C120.453 16.416 120.597 16.08 120.597 15.664C120.597 15.3227 120.495 15.0507 120.293 14.848C120.09 14.6453 119.839 14.4907 119.541 14.384C119.242 14.2773 118.831 14.1653 118.309 14.048C117.658 13.8987 117.135 13.7493 116.741 13.6C116.357 13.4507 116.026 13.216 115.749 12.896C115.482 12.5653 115.349 12.1227 115.349 11.568C115.349 10.832 115.621 10.24 116.165 9.792C116.709 9.33333 117.45 9.104 118.389 9.104ZM134.464 15.392H129.504L128.56 18H126.992L131.168 6.928H132.816L136.976 18H135.408L134.464 15.392ZM134.048 14.256L131.984 8.56L129.92 14.256H134.048ZM142.641 16.72V18H141.553C140.657 18 139.985 17.7867 139.537 17.36C139.1 16.9333 138.881 16.2187 138.881 15.216V10.48H137.569V9.216H138.881V7.024H140.353V9.216H142.625V10.48H140.353V15.248C140.353 15.8133 140.455 16.2027 140.657 16.416C140.871 16.6187 141.233 16.72 141.745 16.72H142.641Z" fill="white"/>
<path d="M63.016 39.104C63.7947 39.104 64.488 39.2853 65.096 39.648C65.704 40.0107 66.1787 40.5333 66.52 41.216C66.872 41.8987 67.048 42.6987 67.048 43.616C67.048 44.5333 66.872 45.3333 66.52 46.016C66.1787 46.688 65.704 47.2053 65.096 47.568C64.488 47.9307 63.7947 48.112 63.016 48.112C62.1627 48.112 61.4373 47.8987 60.84 47.472C60.2533 47.0347 59.848 46.464 59.624 45.76V48H58.168V36.16H59.624V41.456C59.848 40.752 60.2533 40.1867 60.84 39.76C61.4373 39.3227 62.1627 39.104 63.016 39.104ZM62.6 40.4C62.0347 40.4 61.5227 40.5333 61.064 40.8C60.6053 41.056 60.248 41.4293 59.992 41.92C59.736 42.4107 59.608 42.976 59.608 43.616C59.608 44.256 59.736 44.8213 59.992 45.312C60.248 45.792 60.6053 46.1653 61.064 46.432C61.5227 46.6987 62.0347 46.832 62.6 46.832C63.5067 46.832 64.2267 46.5493 64.76 45.984C65.304 45.408 65.576 44.6187 65.576 43.616C65.576 42.6133 65.304 41.8293 64.76 41.264C64.2267 40.688 63.5067 40.4 62.6 40.4ZM72.5493 39.104C73.4026 39.104 74.1226 39.3173 74.7093 39.744C75.3066 40.1707 75.7226 40.7413 75.9573 41.456V36.16H77.4133V48H75.9573V45.76C75.7226 46.4747 75.3066 47.0453 74.7093 47.472C74.1226 47.8987 73.4026 48.112 72.5493 48.112C71.7706 48.112 71.0773 47.9307 70.4693 47.568C69.8613 47.2053 69.3813 46.688 69.0293 46.016C68.6879 45.3333 68.5173 44.5333 68.5173 43.616C68.5173 42.6987 68.6879 41.8987 69.0293 41.216C69.3813 40.5333 69.8613 40.0107 70.4693 39.648C71.0773 39.2853 71.7706 39.104 72.5493 39.104ZM72.9653 40.4C72.0693 40.4 71.3493 40.688 70.8053 41.264C70.2719 41.8293 70.0053 42.6133 70.0053 43.616C70.0053 44.6187 70.2719 45.408 70.8053 45.984C71.3493 46.5493 72.0693 46.832 72.9653 46.832C73.5413 46.832 74.0533 46.6987 74.5013 46.432C74.9599 46.1653 75.3173 45.792 75.5733 45.312C75.8293 44.8213 75.9573 44.256 75.9573 43.616C75.9573 42.976 75.8293 42.4107 75.5733 41.92C75.3173 41.4293 74.9599 41.056 74.5013 40.8C74.0533 40.5333 73.5413 40.4 72.9653 40.4ZM88.4985 35.376C90.1198 35.376 91.5065 35.6747 92.6585 36.272C93.8105 36.8587 94.6852 37.696 95.2825 38.784C95.8798 39.872 96.1785 41.1467 96.1785 42.608C96.1785 43.6427 95.9972 44.5867 95.6345 45.44C95.2718 46.2827 94.7865 46.9493 94.1785 47.44C93.5705 47.92 92.9145 48.16 92.2105 48.16C91.5598 48.16 91.0478 47.9947 90.6745 47.664C90.3118 47.3227 90.1518 46.7733 90.1945 46.016C89.4052 47.4453 88.2585 48.16 86.7545 48.16C86.0932 48.16 85.5012 48 84.9785 47.68C84.4665 47.36 84.0665 46.912 83.7785 46.336C83.4905 45.7493 83.3465 45.072 83.3465 44.304C83.3465 43.312 83.5545 42.4213 83.9705 41.632C84.3865 40.832 84.9518 40.208 85.6665 39.76C86.3918 39.3013 87.1972 39.072 88.0825 39.072C88.8612 39.072 89.5332 39.2267 90.0985 39.536C90.6638 39.8453 91.0905 40.272 91.3785 40.816C91.6772 41.36 91.8265 41.9787 91.8265 42.672C91.8265 42.8427 91.8052 43.0987 91.7625 43.44L91.4105 45.568C91.3892 45.7813 91.3785 45.92 91.3785 45.984C91.3785 46.3147 91.4585 46.5493 91.6185 46.688C91.7785 46.816 92.0078 46.88 92.3065 46.88C92.7225 46.88 93.1118 46.7147 93.4745 46.384C93.8478 46.0427 94.1412 45.552 94.3545 44.912C94.5785 44.272 94.6905 43.52 94.6905 42.656C94.6905 41.44 94.4452 40.3787 93.9545 39.472C93.4638 38.5653 92.7385 37.8613 91.7785 37.36C90.8292 36.848 89.6718 36.592 88.3065 36.592C86.7385 36.592 85.3838 36.9333 84.2425 37.616C83.1118 38.288 82.2478 39.2107 81.6505 40.384C81.0638 41.5467 80.7705 42.8533 80.7705 44.304C80.7705 46.4373 81.3678 48.0587 82.5625 49.168C83.7678 50.288 85.4745 50.8587 87.6825 50.88L87.4105 52.08C84.8505 52.0373 82.8612 51.3493 81.4425 50.016C80.0345 48.6933 79.3305 46.7893 79.3305 44.304C79.3305 42.6187 79.7145 41.0987 80.4825 39.744C81.2505 38.3787 82.3278 37.312 83.7145 36.544C85.1118 35.7653 86.7065 35.376 88.4985 35.376ZM87.2025 46.88C87.7785 46.88 88.3065 46.7253 88.7865 46.416C89.2665 46.096 89.6505 45.6427 89.9385 45.056C90.2265 44.4587 90.3705 43.7653 90.3705 42.976C90.3705 42.1653 90.1518 41.5307 89.7145 41.072C89.2772 40.6027 88.6585 40.368 87.8585 40.368C87.2718 40.368 86.7385 40.5227 86.2585 40.832C85.7892 41.1413 85.4212 41.5787 85.1545 42.144C84.8878 42.7093 84.7545 43.3653 84.7545 44.112C84.7545 44.9333 84.9785 45.6 85.4265 46.112C85.8745 46.624 86.4665 46.88 87.2025 46.88ZM102.605 39.072C103.629 39.072 104.455 39.4027 105.085 40.064C105.714 40.7147 106.029 41.6587 106.029 42.896V48H104.573V43.024C104.573 42.1493 104.349 41.4773 103.901 41.008C103.453 40.5387 102.845 40.304 102.077 40.304C101.277 40.304 100.637 40.5653 100.157 41.088C99.6765 41.6 99.4365 42.352 99.4365 43.344V48H97.9805V36.16H99.4365V41.296C99.6605 40.5813 100.055 40.032 100.621 39.648C101.197 39.264 101.858 39.072 102.605 39.072ZM111.862 39.104C112.715 39.104 113.435 39.3173 114.022 39.744C114.619 40.1707 115.035 40.7413 115.27 41.456V39.216H116.726V48H115.27V45.76C115.035 46.4747 114.619 47.0453 114.022 47.472C113.435 47.8987 112.715 48.112 111.862 48.112C111.083 48.112 110.39 47.9307 109.782 47.568C109.174 47.2053 108.694 46.688 108.342 46.016C108 45.3333 107.83 44.5333 107.83 43.616C107.83 42.6987 108 41.8987 108.342 41.216C108.694 40.5333 109.174 40.0107 109.782 39.648C110.39 39.2853 111.083 39.104 111.862 39.104ZM112.278 40.4C111.382 40.4 110.662 40.688 110.118 41.264C109.584 41.8293 109.318 42.6133 109.318 43.616C109.318 44.6187 109.584 45.408 110.118 45.984C110.662 46.5493 111.382 46.832 112.278 46.832C112.854 46.832 113.366 46.6987 113.814 46.432C114.272 46.1653 114.63 45.792 114.886 45.312C115.142 44.8213 115.27 44.256 115.27 43.616C115.27 42.976 115.142 42.4107 114.886 41.92C114.63 41.4293 114.272 41.056 113.814 40.8C113.366 40.5333 112.854 40.4 112.278 40.4ZM120.499 40.992C120.787 40.384 121.208 39.9147 121.763 39.584C122.318 39.2427 122.979 39.072 123.747 39.072V40.656H123.299C122.478 40.656 121.806 40.8693 121.283 41.296C120.76 41.712 120.499 42.4053 120.499 43.376V48H119.043V39.216H120.499V40.992ZM124.928 36.64C124.928 36.3733 125.018 36.16 125.2 36C125.381 35.8293 125.621 35.744 125.92 35.744C126.218 35.744 126.458 35.8293 126.64 36C126.821 36.16 126.912 36.3733 126.912 36.64C126.912 36.9067 126.821 37.1253 126.64 37.296C126.458 37.456 126.218 37.536 125.92 37.536C125.621 37.536 125.381 37.456 125.2 37.296C125.018 37.1253 124.928 36.9067 124.928 36.64ZM126.64 39.216V48H125.184V39.216H126.64ZM131.733 39.104C132.725 39.104 133.519 39.3653 134.117 39.888C134.725 40.4 135.093 41.0933 135.221 41.968H133.829C133.765 41.4453 133.546 41.0187 133.173 40.688C132.81 40.3467 132.319 40.176 131.701 40.176C131.178 40.176 130.767 40.304 130.469 40.56C130.181 40.8053 130.037 41.1413 130.037 41.568C130.037 41.888 130.133 42.1493 130.325 42.352C130.527 42.544 130.773 42.6933 131.061 42.8C131.359 42.896 131.765 43.0027 132.277 43.12C132.927 43.2693 133.45 43.424 133.845 43.584C134.25 43.7333 134.591 43.9787 134.869 44.32C135.157 44.6613 135.301 45.12 135.301 45.696C135.301 46.4107 135.029 46.992 134.485 47.44C133.951 47.888 133.237 48.112 132.341 48.112C131.295 48.112 130.442 47.8613 129.781 47.36C129.119 46.8587 128.73 46.16 128.613 45.264H130.021C130.074 45.7973 130.303 46.2293 130.709 46.56C131.125 46.8907 131.669 47.056 132.341 47.056C132.842 47.056 133.231 46.928 133.509 46.672C133.797 46.416 133.941 46.08 133.941 45.664C133.941 45.3227 133.839 45.0507 133.637 44.848C133.434 44.6453 133.183 44.4907 132.885 44.384C132.586 44.2773 132.175 44.1653 131.653 44.048C131.002 43.8987 130.479 43.7493 130.085 43.6C129.701 43.4507 129.37 43.216 129.093 42.896C128.826 42.5653 128.693 42.1227 128.693 41.568C128.693 40.832 128.965 40.24 129.509 39.792C130.053 39.3333 130.794 39.104 131.733 39.104ZM140.846 39.104C141.699 39.104 142.419 39.3173 143.006 39.744C143.603 40.1707 144.019 40.7413 144.254 41.456V39.216H145.71V48H144.254V45.76C144.019 46.4747 143.603 47.0453 143.006 47.472C142.419 47.8987 141.699 48.112 140.846 48.112C140.067 48.112 139.374 47.9307 138.766 47.568C138.158 47.2053 137.678 46.688 137.326 46.016C136.985 45.3333 136.814 44.5333 136.814 43.616C136.814 42.6987 136.985 41.8987 137.326 41.216C137.678 40.5333 138.158 40.0107 138.766 39.648C139.374 39.2853 140.067 39.104 140.846 39.104ZM141.262 40.4C140.366 40.4 139.646 40.688 139.102 41.264C138.569 41.8293 138.302 42.6133 138.302 43.616C138.302 44.6187 138.569 45.408 139.102 45.984C139.646 46.5493 140.366 46.832 141.262 46.832C141.838 46.832 142.35 46.6987 142.798 46.432C143.257 46.1653 143.614 45.792 143.87 45.312C144.126 44.8213 144.254 44.256 144.254 43.616C144.254 42.976 144.126 42.4107 143.87 41.92C143.614 41.4293 143.257 41.056 142.798 40.8C142.35 40.5333 141.838 40.4 141.262 40.4ZM152.651 39.072C153.675 39.072 154.502 39.4027 155.131 40.064C155.761 40.7147 156.075 41.6587 156.075 42.896V48H154.619V43.024C154.619 42.1493 154.395 41.4773 153.947 41.008C153.499 40.5387 152.891 40.304 152.123 40.304C151.323 40.304 150.683 40.5653 150.203 41.088C149.723 41.6 149.483 42.352 149.483 43.344V48H148.027V39.216H149.483V41.296C149.707 40.5813 150.102 40.032 150.667 39.648C151.243 39.264 151.905 39.072 152.651 39.072ZM161.909 39.104C162.762 39.104 163.482 39.3173 164.069 39.744C164.666 40.1707 165.082 40.7413 165.317 41.456V36.16H166.773V48H165.317V45.76C165.082 46.4747 164.666 47.0453 164.069 47.472C163.482 47.8987 162.762 48.112 161.909 48.112C161.13 48.112 160.437 47.9307 159.829 47.568C159.221 47.2053 158.741 46.688 158.389 46.016C158.047 45.3333 157.877 44.5333 157.877 43.616C157.877 42.6987 158.047 41.8987 158.389 41.216C158.741 40.5333 159.221 40.0107 159.829 39.648C160.437 39.2853 161.13 39.104 161.909 39.104ZM162.325 40.4C161.429 40.4 160.709 40.688 160.165 41.264C159.631 41.8293 159.365 42.6133 159.365 43.616C159.365 44.6187 159.631 45.408 160.165 45.984C160.709 46.5493 161.429 46.832 162.325 46.832C162.901 46.832 163.413 46.6987 163.861 46.432C164.319 46.1653 164.677 45.792 164.933 45.312C165.189 44.8213 165.317 44.256 165.317 43.616C165.317 42.976 165.189 42.4107 164.933 41.92C164.677 41.4293 164.319 41.056 163.861 40.8C163.413 40.5333 162.901 40.4 162.325 40.4ZM170.162 46.288V48H168.402V46.288H170.162ZM175.712 39.104C176.832 39.104 177.76 39.4027 178.496 40C179.232 40.5973 179.686 41.3973 179.856 42.4H178.32C178.214 41.7707 177.92 41.28 177.44 40.928C176.971 40.5653 176.384 40.384 175.68 40.384C175.168 40.384 174.699 40.5013 174.272 40.736C173.856 40.9707 173.52 41.3333 173.264 41.824C173.008 42.304 172.88 42.9013 172.88 43.616C172.88 44.3307 173.008 44.9333 173.264 45.424C173.52 45.904 173.856 46.2613 174.272 46.496C174.699 46.7307 175.168 46.848 175.68 46.848C176.384 46.848 176.971 46.6667 177.44 46.304C177.92 45.9413 178.214 45.4453 178.32 44.816H179.856C179.686 45.8293 179.232 46.6347 178.496 47.232C177.76 47.8187 176.832 48.112 175.712 48.112C174.87 48.112 174.123 47.9307 173.472 47.568C172.822 47.2053 172.31 46.688 171.936 46.016C171.574 45.3333 171.392 44.5333 171.392 43.616C171.392 42.6987 171.574 41.8987 171.936 41.216C172.31 40.5333 172.822 40.0107 173.472 39.648C174.123 39.2853 174.87 39.104 175.712 39.104ZM185.746 39.104C186.588 39.104 187.34 39.2853 188.002 39.648C188.674 40.0107 189.196 40.5333 189.57 41.216C189.954 41.8987 190.146 42.6987 190.146 43.616C190.146 44.5333 189.954 45.3333 189.57 46.016C189.196 46.688 188.674 47.2053 188.002 47.568C187.34 47.9307 186.588 48.112 185.746 48.112C184.903 48.112 184.146 47.9307 183.474 47.568C182.812 47.2053 182.29 46.688 181.906 46.016C181.522 45.3333 181.33 44.5333 181.33 43.616C181.33 42.6987 181.522 41.8987 181.906 41.216C182.29 40.5333 182.812 40.0107 183.474 39.648C184.146 39.2853 184.903 39.104 185.746 39.104ZM185.746 40.384C185.223 40.384 184.738 40.5013 184.29 40.736C183.852 40.9707 183.495 41.3333 183.218 41.824C182.951 42.304 182.818 42.9013 182.818 43.616C182.818 44.32 182.951 44.9173 183.218 45.408C183.495 45.888 183.852 46.2453 184.29 46.48C184.738 46.7147 185.223 46.832 185.746 46.832C186.268 46.832 186.748 46.7147 187.186 46.48C187.634 46.2453 187.991 45.888 188.258 45.408C188.535 44.9173 188.674 44.32 188.674 43.616C188.674 42.9013 188.535 42.304 188.258 41.824C187.991 41.3333 187.634 40.9707 187.186 40.736C186.748 40.5013 186.268 40.384 185.746 40.384Z" fill="white"/>
<path d="M2.27437 35C1.62602 35 1.08511 34.78 0.65163 34.34C0.218148 33.9 0.000938272 33.3505 0 32.6914V17.3086C0 16.6505 0.21721 16.1014 0.65163 15.6614C1.08605 15.2214 1.62649 15.001 2.27296 15H23.0604C23.7078 15 24.2482 15.2205 24.6817 15.6614C25.1152 16.1024 25.3324 16.6514 25.3333 17.3086V32.6929C25.3333 33.35 25.1161 33.899 24.6817 34.34C24.2473 34.7809 23.7068 35.0009 23.0604 35H2.27437ZM12.6667 25.1657L23.9259 17.6929L23.4924 16.4286L12.6667 23.5714L1.84089 16.4286L1.40741 17.6929L12.6667 25.1657Z" fill="white"/>
</svg>
