<svg width="218" height="59" viewBox="0 0 218 59" fill="none" xmlns="http://www.w3.org/2000/svg">
<path d="M86.4774 10.7404L88.7216 16.1362L88.7883 16.2966L88.9614 16.3105L94.7867 16.7775L90.3485 20.5793L90.2166 20.6923L90.2569 20.8612L91.6128 26.5457L86.6256 23.4995L86.4774 23.409L86.3292 23.4995L81.3419 26.5457L82.6978 20.8612L82.7381 20.6923L82.6062 20.5793L78.168 16.7775L83.9933 16.3105L84.1664 16.2966L84.2331 16.1362L86.4774 10.7404Z" fill="#F1C644" stroke="#F1C644" stroke-width="0.568641"/>
<path d="M114.907 10.7401L117.151 16.136L117.218 16.2963L117.391 16.3102L123.216 16.7772L118.778 20.5791L118.646 20.6921L118.687 20.861L120.043 26.5455L115.055 23.4993L114.907 23.4088L114.759 23.4993L109.772 26.5455L111.128 20.861L111.168 20.6921L111.036 20.5791L106.598 16.7772L112.423 16.3102L112.596 16.2963L112.663 16.136L114.907 10.7401Z" fill="#F1C644" stroke="#F1C644" stroke-width="0.568641"/>
<path d="M143.345 10.7401L145.589 16.136L145.656 16.2963L145.829 16.3102L151.654 16.7772L147.216 20.5791L147.084 20.6921L147.124 20.861L148.48 26.5455L143.493 23.4993L143.345 23.4088L143.196 23.4993L138.209 26.5455L139.565 20.861L139.605 20.6921L139.473 20.5791L135.035 16.7772L140.86 16.3102L141.034 16.2963L141.1 16.136L143.345 10.7401Z" fill="#F1C644" stroke="#F1C644" stroke-width="0.568641"/>
<path d="M171.774 10.7401L174.019 16.136L174.085 16.2963L174.258 16.3102L180.084 16.7772L175.645 20.5791L175.513 20.6921L175.554 20.861L176.91 26.5455L171.922 23.4993L171.774 23.4088L171.626 23.4993L166.639 26.5455L167.995 20.861L168.035 20.6921L167.903 20.5791L163.465 16.7772L169.29 16.3102L169.463 16.2963L169.53 16.136L171.774 10.7401Z" fill="#F1C644" stroke="#F1C644" stroke-width="0.568641"/>
<path d="M200.204 10.7401L202.448 16.136L202.515 16.2963L202.688 16.3102L208.513 16.7772L204.075 20.5791L203.943 20.6921L203.983 20.861L205.339 26.5455L200.352 23.4993L200.204 23.4088L200.056 23.4993L195.068 26.5455L196.424 20.861L196.465 20.6921L196.333 20.5791L191.895 16.7772L197.72 16.3102L197.893 16.2963L197.96 16.136L200.204 10.7401Z" fill="#F1C644" stroke="#F1C644" stroke-width="0.568641"/>
<path d="M0.856286 19.9194C0.855348 23.3072 1.74055 26.6151 3.42373 29.5308L0.695312 39.4927L10.8901 36.8196C13.7098 38.3546 16.8691 39.1589 20.0796 39.1592H20.0881C30.6865 39.1592 39.3139 30.5349 39.3185 19.9346C39.3205 14.7979 37.3219 9.96781 33.6908 6.33387C30.0603 2.70025 25.2319 0.698084 20.0873 0.69574C9.48759 0.69574 0.860662 9.31954 0.856286 19.9194Z" fill="url(#paint0_linear_1783_1539)"/>
<path d="M3.50772 29.5199L3.4991 29.5514L0.806439 39.3827L10.8703 36.744L10.9002 36.7361L10.9274 36.7509C13.7357 38.2797 16.8822 39.0808 20.0796 39.081H20.0881C30.6434 39.081 39.2358 30.4917 39.2403 19.9345C39.2423 14.8186 37.252 10.0084 33.6355 6.3891C30.0197 2.77016 25.2112 0.776224 20.0873 0.773882L3.50772 29.5199ZM3.50772 29.5199L3.49141 29.4917M3.50772 29.5199L3.49141 29.4917M3.49141 29.4917C1.81511 26.588 0.933494 23.2935 0.934428 19.9194M3.49141 29.4917L0.934428 19.9194M0.934428 19.9194C0.938786 9.36272 9.53071 0.773902 20.0873 0.773882L0.934428 19.9194Z" stroke="#CFCFCF" stroke-opacity="0.5" stroke-width="0.156285"/>
<path d="M0.167225 19.9132C0.166131 23.4229 1.08305 26.8491 2.82626 29.8692L0 40.1882L10.5603 37.4193C13.47 39.0057 16.7461 39.8422 20.0796 39.8434H20.0882C31.0669 39.8434 40.0042 30.9089 40.0089 19.9291C40.0108 14.6079 37.9403 9.60417 34.1795 5.84005C30.4182 2.0764 25.4171 0.00218799 20.0882 0C9.10766 0 0.171601 8.93324 0.167225 19.9132ZM6.45628 29.349L6.06198 28.7231C4.40442 26.0875 3.52954 23.0419 3.53079 19.9144C3.53423 10.7882 10.9615 3.36325 20.0945 3.36325C24.5173 3.36513 28.6739 5.08926 31.8002 8.21746C34.9264 11.346 36.6466 15.5047 36.6455 19.9279C36.6415 29.0541 29.214 36.48 20.0882 36.48H20.0817C17.1102 36.4784 14.196 35.6805 11.6545 34.1725L11.0497 33.8138L4.78294 35.4568L6.45628 29.349Z" fill="url(#paint1_linear_1783_1539)"/>
<path d="M3.23971 29.8159L3.19729 29.9708L0.547083 39.647L10.4628 37.0472L10.6104 37.0084L10.7445 37.0815C13.5976 38.6371 16.8103 39.4575 20.0796 39.4587C20.0797 39.4587 20.0797 39.4587 20.0798 39.4587H20.0882C30.8545 39.4587 39.6196 30.6964 39.6242 19.929C39.6261 14.7098 37.5961 9.80394 33.9074 6.11199L3.23971 29.8159ZM3.23971 29.8159L3.15944 29.6768M3.23971 29.8159L3.15944 29.6768M3.15944 29.6768C1.45013 26.7155 0.550853 23.3557 0.551926 19.9133M3.15944 29.6768L0.551926 19.9133M0.551926 19.9133C0.556217 9.14581 9.31999 0.384787 20.0881 0.384701L0.551926 19.9133ZM5.73633 28.9279L5.73648 28.9282L6.0405 29.4108L4.41191 35.3552L4.2358 35.998L4.88051 35.8289L10.9917 34.2267L11.4582 34.5033C14.0594 36.0467 17.0414 36.8631 20.0815 36.8647H20.0817H20.0882C29.4265 36.8647 37.0261 29.2666 37.0302 19.9281V19.928C37.0313 15.4028 35.2707 11.1462 32.0723 7.94554L32.0723 7.94552C28.8739 4.74519 24.6196 2.98047 20.0946 2.97855H20.0945C10.7492 2.97855 3.1496 10.5755 3.14609 19.9143C3.14481 23.1138 4.03996 26.2306 5.73633 28.9279ZM20.0882 0.384701C25.315 0.386888 30.2182 2.42056 33.9074 6.11196L20.0882 0.384701Z" stroke="#CFCFCF" stroke-opacity="0.5" stroke-width="0.769402"/>
<path d="M15.1121 11.5882C14.7392 10.7594 14.3468 10.7427 13.9921 10.7281C13.7018 10.7156 13.3698 10.7166 13.0382 10.7166C12.7062 10.7166 12.1669 10.8414 11.711 11.3392C11.2547 11.8374 9.96875 13.0415 9.96875 15.4903C9.96875 17.9391 11.7524 20.3059 12.0011 20.6383C12.25 20.9701 15.4445 26.1563 20.5038 28.1514C24.7084 29.8094 25.5641 29.4797 26.4767 29.3965C27.3894 29.3137 29.4217 28.1928 29.8363 27.0305C30.2512 25.8684 30.2512 24.8722 30.1268 24.6641C30.0024 24.4567 29.6705 24.3321 29.1727 24.0833C28.675 23.8345 26.2277 22.6302 25.7715 22.464C25.3151 22.2981 24.9833 22.2152 24.6514 22.7136C24.3195 23.2112 23.3663 24.3321 23.0757 24.6641C22.7855 24.9968 22.495 25.0382 21.9974 24.7892C21.4993 24.5395 19.8963 24.0145 17.9944 22.319C16.5147 20.9996 15.5158 19.3704 15.2254 18.872C14.935 18.3744 15.1943 18.1046 15.4439 17.8566C15.6675 17.6336 15.9418 17.2754 16.1909 16.9848C16.4391 16.6942 16.5219 16.4868 16.6879 16.1548C16.854 15.8226 16.7709 15.5319 16.6466 15.2829C16.5219 15.0339 15.5547 12.5723 15.1121 11.5882Z" fill="white"/>
<path d="M23.0757 24.6641C22.7855 24.9968 22.495 25.0382 21.9974 24.7892L15.2254 18.872L15.1579 18.9113C15.4496 19.412 16.4535 21.0497 17.9424 22.3773L17.9924 22.3213L17.9424 22.3773C19.5429 23.8041 20.9371 24.4089 21.6365 24.7123C21.7726 24.7714 21.8825 24.819 21.9623 24.8591L21.9624 24.8591C22.2164 24.9862 22.4301 25.0459 22.6238 25.0224C22.8206 24.9984 22.982 24.8904 23.1345 24.7155M23.0757 24.6641L23.1345 24.7155M23.0757 24.6641C23.3663 24.3321 24.3195 23.2112 24.6514 22.7136C24.9833 22.2152 25.3151 22.2981 25.7715 22.464C26.2277 22.6302 28.675 23.8345 29.1727 24.0833C29.2696 24.1317 29.3602 24.1755 29.4443 24.216C29.7919 24.3837 30.0267 24.497 30.1268 24.6641M23.0757 24.6641L23.1346 24.7154C23.1346 24.7155 23.1346 24.7155 23.1345 24.7155M23.1345 24.7155L16.6466 15.2829M16.6466 15.2829C16.5936 15.177 16.388 14.6705 16.1352 14.0476C15.7938 13.2066 15.3664 12.1536 15.1121 11.5882M16.6466 15.2829L16.5768 15.3179C16.5768 15.3179 16.5767 15.3178 16.5767 15.3178M16.6466 15.2829L16.5767 15.3178M15.1121 11.5882C14.7392 10.7594 14.3468 10.7427 13.9921 10.7281C13.7207 10.7164 13.413 10.7165 13.1031 10.7166C13.0815 10.7166 13.0598 10.7166 13.0382 10.7166C12.7062 10.7166 12.1669 10.8414 11.711 11.3392C11.6818 11.3711 11.6491 11.4059 11.6137 11.4438C11.0952 11.9968 9.96875 13.1983 9.96875 15.4903C9.96875 17.9223 11.728 20.2733 11.9957 20.6312L12.0011 20.6383M15.1121 11.5882L15.0408 11.6202M15.1121 11.5882L15.0408 11.6202M12.0011 20.6383C12.02 20.6635 12.0559 20.7167 12.1083 20.7943C12.7459 21.7393 15.8287 26.3078 20.5038 28.1514C24.3043 29.6501 25.3687 29.5247 26.2121 29.4253C26.3018 29.4148 26.3889 29.4045 26.4767 29.3965C27.3894 29.3137 29.4217 28.1928 29.8363 27.0305C30.2512 25.8684 30.2512 24.8722 30.1268 24.6641M12.0011 20.6383L12.0636 20.5914M12.0011 20.6383L12.0637 20.5915L12.0636 20.5914M30.1268 24.6641L30.0598 24.7041M30.1268 24.6641L30.0598 24.7043C30.0598 24.7042 30.0598 24.7042 30.0598 24.7041M30.0598 24.7041C30.009 24.6196 29.9114 24.545 29.7522 24.4577C29.6555 24.4047 29.5432 24.3505 29.4133 24.2878C29.3291 24.2472 29.2374 24.203 29.1378 24.1532C28.8892 24.029 28.1533 23.6658 27.4225 23.313C26.6893 22.959 25.9681 22.6188 25.7448 22.5375L30.0598 24.7041ZM12.0636 20.5914L12.0583 20.5844C11.9262 20.4078 11.4287 19.743 10.9613 18.8226C10.4869 17.8882 10.0469 16.6971 10.0469 15.4903C10.0469 13.2294 11.1551 12.0472 11.6712 11.4967C11.7067 11.4588 11.7393 11.424 11.7686 11.392L11.7686 11.392C12.2072 10.9131 12.7242 10.7947 13.0382 10.7947C13.0597 10.7947 13.0812 10.7947 13.1026 10.7947C13.413 10.7946 13.7191 10.7946 13.9888 10.8062L13.9889 10.8062C14.1674 10.8135 14.3357 10.8216 14.5061 10.9204C14.6759 11.0189 14.8582 11.2143 15.0408 11.6202M12.0636 20.5914L15.0408 11.6202M15.0408 11.6202L15.0408 11.6202M15.0408 11.6202C15.2614 12.1107 15.6133 12.9706 15.9262 13.7406C15.9728 13.8552 16.0185 13.968 16.0629 14.0773C16.315 14.6986 16.5221 15.2086 16.5767 15.3178M15.0408 11.6202L16.5767 15.3178" stroke="#CFCFCF" stroke-opacity="0.5" stroke-width="0.156285"/>
<path d="M83.626 51L81.1944 46.7752H79.8723V51H78.1398V40.4379H81.7871C82.5976 40.4379 83.2815 40.5798 83.8388 40.8634C84.4061 41.1471 84.8266 41.5271 85.1001 42.0032C85.3838 42.4794 85.5256 43.0113 85.5256 43.5989C85.5256 44.2879 85.323 44.916 84.9178 45.4834C84.5226 46.0406 83.9097 46.4206 83.0789 46.6232L85.6928 51H83.626ZM79.8723 45.3922H81.7871C82.4355 45.3922 82.9219 45.2301 83.2461 44.9059C83.5804 44.5817 83.7476 44.146 83.7476 43.5989C83.7476 43.0518 83.5855 42.6263 83.2613 42.3224C82.9371 42.0083 82.4457 41.8513 81.7871 41.8513H79.8723V45.3922ZM95.4166 46.608C95.4166 46.9221 95.3963 47.2058 95.3558 47.459H88.9577C89.0084 48.1277 89.2566 48.6647 89.7024 49.07C90.1482 49.4752 90.6953 49.6778 91.3437 49.6778C92.2758 49.6778 92.9343 49.2878 93.3193 48.5077H95.1886C94.9353 49.2776 94.4743 49.9109 93.8056 50.4073C93.1471 50.8936 92.3264 51.1368 91.3437 51.1368C90.5433 51.1368 89.824 50.9595 89.1857 50.6049C88.5575 50.2401 88.0611 49.7336 87.6964 49.0851C87.3418 48.4266 87.1645 47.6667 87.1645 46.8056C87.1645 45.9444 87.3367 45.1896 87.6812 44.5412C88.0358 43.8826 88.5271 43.3761 89.1553 43.0215C89.7936 42.6669 90.523 42.4895 91.3437 42.4895C92.134 42.4895 92.8381 42.6618 93.4561 43.0063C94.0741 43.3507 94.5554 43.837 94.8998 44.4652C95.2443 45.0832 95.4166 45.7975 95.4166 46.608ZM93.6081 46.0609C93.598 45.4226 93.37 44.911 92.9242 44.526C92.4784 44.141 91.9263 43.9485 91.2677 43.9485C90.67 43.9485 90.1583 44.141 89.7328 44.526C89.3073 44.9008 89.054 45.4125 88.9729 46.0609H93.6081ZM100.359 49.4499L102.729 42.6263H104.568L101.377 51H99.3099L96.1337 42.6263H97.9877L100.359 49.4499ZM106.759 41.5169C106.445 41.5169 106.182 41.4105 105.969 41.1978C105.756 40.985 105.65 40.7216 105.65 40.4075C105.65 40.0935 105.756 39.83 105.969 39.6173C106.182 39.4045 106.445 39.2981 106.759 39.2981C107.063 39.2981 107.321 39.4045 107.534 39.6173C107.747 39.83 107.853 40.0935 107.853 40.4075C107.853 40.7216 107.747 40.985 107.534 41.1978C107.321 41.4105 107.063 41.5169 106.759 41.5169ZM107.61 42.6263V51H105.878V42.6263H107.61ZM117.559 46.608C117.559 46.9221 117.539 47.2058 117.499 47.459H111.101C111.151 48.1277 111.399 48.6647 111.845 49.07C112.291 49.4752 112.838 49.6778 113.487 49.6778C114.419 49.6778 115.077 49.2878 115.462 48.5077H117.331C117.078 49.2776 116.617 49.9109 115.948 50.4073C115.29 50.8936 114.469 51.1368 113.487 51.1368C112.686 51.1368 111.967 50.9595 111.329 50.6049C110.7 50.2401 110.204 49.7336 109.839 49.0851C109.485 48.4266 109.307 47.6667 109.307 46.8056C109.307 45.9444 109.48 45.1896 109.824 44.5412C110.179 43.8826 110.67 43.3761 111.298 43.0215C111.936 42.6669 112.666 42.4895 113.487 42.4895C114.277 42.4895 114.981 42.6618 115.599 43.0063C116.217 43.3507 116.698 43.837 117.043 44.4652C117.387 45.0832 117.559 45.7975 117.559 46.608ZM115.751 46.0609C115.741 45.4226 115.513 44.911 115.067 44.526C114.621 44.141 114.069 43.9485 113.411 43.9485C112.813 43.9485 112.301 44.141 111.876 44.526C111.45 44.9008 111.197 45.4125 111.116 46.0609H115.751ZM130.51 42.6263L127.912 51H126.088L124.401 44.8147L122.714 51H120.89L118.277 42.6263H120.039L121.787 49.3587L123.565 42.6263H125.374L127.076 49.3283L128.808 42.6263H130.51ZM134.844 51.1368C134.186 51.1368 133.593 51.0203 133.066 50.7872C132.55 50.5441 132.139 50.2199 131.835 49.8146C131.531 49.3992 131.369 48.9382 131.349 48.4317H133.142C133.173 48.7863 133.34 49.0851 133.644 49.3283C133.958 49.5613 134.348 49.6778 134.814 49.6778C135.3 49.6778 135.675 49.5867 135.939 49.4043C136.212 49.2118 136.349 48.9686 136.349 48.6748C136.349 48.3607 136.197 48.1277 135.893 47.9758C135.599 47.8238 135.128 47.6566 134.48 47.4742C133.852 47.302 133.34 47.1348 132.945 46.9727C132.55 46.8106 132.205 46.5624 131.911 46.2281C131.628 45.8937 131.486 45.453 131.486 44.9059C131.486 44.4601 131.618 44.0549 131.881 43.6901C132.144 43.3153 132.519 43.0215 133.006 42.8087C133.502 42.5959 134.069 42.4895 134.708 42.4895C135.66 42.4895 136.425 42.7327 137.002 43.219C137.59 43.6952 137.904 44.3487 137.945 45.1795H136.212C136.182 44.8046 136.03 44.5057 135.756 44.2828C135.483 44.0599 135.113 43.9485 134.647 43.9485C134.191 43.9485 133.841 44.0346 133.598 44.2068C133.355 44.3791 133.234 44.607 133.234 44.8907C133.234 45.1136 133.315 45.301 133.477 45.453C133.639 45.605 133.836 45.7266 134.069 45.8177C134.302 45.8988 134.647 46.0052 135.103 46.1369C135.711 46.299 136.207 46.4662 136.592 46.6384C136.987 46.8005 137.327 47.0437 137.61 47.3679C137.894 47.6921 138.041 48.1227 138.051 48.6596C138.051 49.1358 137.919 49.5613 137.656 49.9362C137.393 50.3111 137.018 50.6049 136.531 50.8176C136.055 51.0304 135.493 51.1368 134.844 51.1368Z" fill="black" fill-opacity="0.5"/>
<rect x="21" y="16" width="47.4066" height="42.7437" fill="white"/>
<path d="M59.5574 34.7163H58.3054V34.6517H44.3166V40.869H53.1008C51.8193 44.4882 48.3757 47.0863 44.3166 47.0863C39.1664 47.0863 34.9907 42.9106 34.9907 37.7604C34.9907 32.6102 39.1664 28.4345 44.3166 28.4345C46.6939 28.4345 48.8567 29.3313 50.5035 30.7963L54.8999 26.3999C52.1239 23.8127 48.4107 22.2172 44.3166 22.2172C35.7329 22.2172 28.7734 29.1767 28.7734 37.7604C28.7734 46.3441 35.7329 53.3035 44.3166 53.3035C52.9003 53.3035 59.8597 46.3441 59.8597 37.7604C59.8597 36.7182 59.7525 35.7009 59.5574 34.7163Z" fill="#FFC107"/>
<path d="M30.5625 30.5258L35.6692 34.2709C37.051 30.8499 40.3974 28.4345 44.3135 28.4345C46.6909 28.4345 48.8537 29.3313 50.5005 30.7963L54.8969 26.3999C52.1209 23.8127 48.4076 22.2172 44.3135 22.2172C38.3434 22.2172 33.166 25.5878 30.5625 30.5258Z" fill="#FF3D00"/>
<path d="M44.3139 53.3035C48.3287 53.3035 51.9766 51.7671 54.7348 49.2685L49.9242 45.1978C48.3115 46.4249 46.3404 47.0884 44.3139 47.0862C40.2711 47.0862 36.8384 44.5084 35.5452 40.9109L30.4766 44.8162C33.049 49.8498 38.273 53.3035 44.3139 53.3035Z" fill="#4CAF50"/>
<path d="M59.5612 34.7163H58.3092V34.6518H44.3203V40.8691H53.1045C52.4915 42.5916 51.3873 44.0967 49.9283 45.1986L49.9306 45.197L54.7412 49.2678C54.4008 49.5771 59.8635 45.532 59.8635 37.7604C59.8635 36.7183 59.7562 35.701 59.5612 34.7163Z" fill="#1976D2"/>
<defs>
<linearGradient id="paint0_linear_1783_1539" x1="1931.85" y1="3880.39" x2="1931.85" y2="0.69574" gradientUnits="userSpaceOnUse">
<stop stop-color="#1FAF38"/>
<stop offset="1" stop-color="#60D669"/>
</linearGradient>
<linearGradient id="paint1_linear_1783_1539" x1="2000.45" y1="4018.82" x2="2000.45" y2="0" gradientUnits="userSpaceOnUse">
<stop stop-color="#F9F9F9"/>
<stop offset="1" stop-color="white"/>
</linearGradient>
</defs>
</svg>
