<svg width="15" height="16" viewBox="0 0 15 16" fill="none" xmlns="http://www.w3.org/2000/svg">
<path d="M1.99901 12.0043L12.6367 5.03194L10.0146 14.9187C9.97318 15.0775 10.1471 15.208 10.2816 15.1198L11.8907 14.0652C11.9616 14.0187 12.0116 13.9483 12.0335 13.8668L14.8648 3.20078C14.8908 3.10315 14.8956 3.00036 14.8788 2.89938C14.8621 2.79839 14.8242 2.70158 14.7678 2.61549C14.7114 2.5294 14.6377 2.45606 14.5518 2.40042C14.4659 2.34477 14.3697 2.30814 14.2698 2.293L3.29527 0.622168C3.25198 0.615609 3.21063 0.623904 3.17609 0.646545L1.51252 1.73691C1.37798 1.8251 1.4295 2.03852 1.59044 2.062L11.7005 3.60355L1.06279 10.576C0.982791 10.6284 0.961687 10.7389 1.01589 10.8216L1.75501 11.9493C1.80921 12.032 1.91901 12.0568 1.99901 12.0043Z" fill="white"/>
</svg>
