<svg width="44" height="44" viewBox="0 0 44 44" fill="none" xmlns="http://www.w3.org/2000/svg">
<path d="M35.8973 11.8365L11.7642 36.4026L43.0822 38.2884C43.5852 38.3207 43.9501 38.96 43.6448 39.2707L39.9946 42.9865C39.8337 43.1502 39.6034 43.2292 39.345 43.2145L5.55791 41.1875C5.24863 41.1691 4.92826 41.0832 4.61852 40.9357C4.30878 40.7882 4.0169 40.5825 3.76266 40.3326C3.50843 40.0826 3.29777 39.7943 3.14496 39.487C2.99215 39.1797 2.90077 38.8608 2.877 38.5518L0.243448 4.59014C0.233162 4.45622 0.268552 4.34244 0.34692 4.26267L4.12094 0.42094C4.42616 0.110243 5.07704 0.469535 5.11249 0.966594L7.54584 32.2553L31.6789 7.68919C31.8604 7.50446 32.2087 7.54976 32.453 7.78987L35.7833 11.0641C36.0275 11.3042 36.0788 11.6518 35.8973 11.8365Z" fill="#7744D5"/>
</svg>
