<svg width="28" height="27" viewBox="0 0 28 27" fill="none" xmlns="http://www.w3.org/2000/svg">
<path d="M15.2102 0.253906C16.7071 0.257898 17.4668 0.265881 18.1228 0.284509L18.3809 0.293823C18.679 0.304468 18.973 0.317773 19.3283 0.33374C20.744 0.400268 21.71 0.623802 22.5576 0.952451C23.4357 1.29041 24.1755 1.74813 24.9153 2.48659C25.5919 3.15173 26.1154 3.95631 26.4495 4.84434C26.7781 5.69191 27.0016 6.6579 27.0682 8.07494C27.0841 8.42887 27.0974 8.72293 27.1081 9.0223L27.1161 9.28043C27.136 9.93507 27.144 10.6948 27.1467 12.1917L27.148 13.1843V14.9273C27.1513 15.8979 27.1411 16.8684 27.1174 17.8386L27.1094 18.0967C27.0988 18.3961 27.0855 18.6902 27.0695 19.0441C27.003 20.4611 26.7768 21.4258 26.4495 22.2747C26.1164 23.1632 25.5927 23.968 24.9153 24.6324C24.25 25.3088 23.4455 25.8323 22.5576 26.1666C21.71 26.4952 20.744 26.7188 19.3283 26.7853C19.0126 26.8002 18.6968 26.8135 18.3809 26.8252L18.1228 26.8332C17.4668 26.8518 16.7071 26.8611 15.2102 26.8638L14.2176 26.8651H12.4759C11.5049 26.8685 10.534 26.8583 9.56331 26.8345L9.30518 26.8265C8.98932 26.8146 8.67352 26.8008 8.35782 26.7853C6.9421 26.7188 5.97611 26.4952 5.12721 26.1666C4.23929 25.8331 3.43503 25.3095 2.77079 24.6324C2.0936 23.9675 1.56959 23.1629 1.23532 22.2747C0.906675 21.4271 0.68314 20.4611 0.616612 19.0441C0.601788 18.7284 0.588482 18.4126 0.576695 18.0967L0.570043 17.8386C0.545523 16.8684 0.534434 15.8979 0.536778 14.9273V12.1917C0.533065 11.2212 0.542823 10.2507 0.566051 9.28043L0.575365 9.0223C0.586009 8.72293 0.599315 8.42887 0.615282 8.07494C0.68181 6.6579 0.905344 5.69324 1.23399 4.84434C1.56811 3.9554 2.09316 3.15057 2.77212 2.48659C3.43619 1.80996 4.23992 1.2864 5.12721 0.952451C5.97611 0.623802 6.94077 0.400268 8.35782 0.33374C8.71175 0.317773 9.00713 0.304468 9.30518 0.293823L9.56331 0.28584C10.5335 0.262199 11.5041 0.251997 12.4746 0.255237L15.2102 0.253906ZM13.8424 6.90671C12.078 6.90671 10.3858 7.60763 9.13815 8.85527C7.8905 10.1029 7.18958 11.7951 7.18958 13.5595C7.18958 15.324 7.8905 17.0161 9.13815 18.2638C10.3858 19.5114 12.078 20.2123 13.8424 20.2123C15.6068 20.2123 17.299 19.5114 18.5466 18.2638C19.7943 17.0161 20.4952 15.324 20.4952 13.5595C20.4952 11.7951 19.7943 10.1029 18.5466 8.85527C17.299 7.60763 15.6068 6.90671 13.8424 6.90671ZM13.8424 9.56783C14.3666 9.56775 14.8857 9.67091 15.37 9.87143C15.8543 10.0719 16.2944 10.3659 16.6651 10.7365C17.0359 11.1071 17.33 11.5471 17.5306 12.0314C17.7313 12.5156 17.8347 13.0347 17.8347 13.5589C17.8348 14.083 17.7317 14.6021 17.5311 15.0865C17.3306 15.5708 17.0367 16.0109 16.6661 16.3816C16.2955 16.7523 15.8555 17.0464 15.3712 17.2471C14.887 17.4478 14.3679 17.5511 13.8437 17.5512C12.7851 17.5512 11.7698 17.1307 11.0212 16.3821C10.2726 15.6335 9.85204 14.6182 9.85204 13.5595C9.85204 12.5009 10.2726 11.4856 11.0212 10.737C11.7698 9.98839 12.7851 9.56783 13.8437 9.56783M20.8292 4.91087C20.3881 4.91087 19.965 5.0861 19.6531 5.39801C19.3412 5.70992 19.166 6.13296 19.166 6.57407C19.166 7.01518 19.3412 7.43822 19.6531 7.75013C19.965 8.06204 20.3881 8.23727 20.8292 8.23727C21.2703 8.23727 21.6933 8.06204 22.0052 7.75013C22.3171 7.43822 22.4924 7.01518 22.4924 6.57407C22.4924 6.13296 22.3171 5.70992 22.0052 5.39801C21.6933 5.0861 21.2703 4.91087 20.8292 4.91087Z" fill="white"/>
</svg>
