<svg width="28" height="27" viewBox="0 0 28 27" fill="none" xmlns="http://www.w3.org/2000/svg">
<path d="M24.5231 0.253906C25.3073 0.253906 26.0593 0.565426 26.6138 1.11993C27.1684 1.67444 27.4799 2.42652 27.4799 3.21071V23.9083C27.4799 24.6925 27.1684 25.4446 26.6138 25.9991C26.0593 26.5536 25.3073 26.8651 24.5231 26.8651H3.82546C3.04126 26.8651 2.28919 26.5536 1.73468 25.9991C1.18017 25.4446 0.868652 24.6925 0.868652 23.9083V3.21071C0.868652 2.42652 1.18017 1.67444 1.73468 1.11993C2.28919 0.565426 3.04126 0.253906 3.82546 0.253906H24.5231ZM23.7839 23.1691V15.3336C23.7839 14.0554 23.2761 12.8295 22.3722 11.9256C21.4684 11.0218 20.2425 10.514 18.9643 10.514C17.7076 10.514 16.244 11.2828 15.5344 12.4359V10.7949H11.4097V23.1691H15.5344V15.8806C15.5344 14.7422 16.451 13.8108 17.5894 13.8108C18.1383 13.8108 18.6648 14.0289 19.0529 14.4171C19.4411 14.8052 19.6591 15.3317 19.6591 15.8806V23.1691H23.7839ZM6.60485 8.47382C7.26357 8.47382 7.89531 8.21214 8.3611 7.74636C8.82689 7.28057 9.08856 6.64883 9.08856 5.9901C9.08856 4.61519 7.97976 3.49161 6.60485 3.49161C5.94221 3.49161 5.3067 3.75484 4.83814 4.2234C4.36959 4.69196 4.10635 5.32746 4.10635 5.9901C4.10635 7.36502 5.22994 8.47382 6.60485 8.47382ZM8.65983 23.1691V10.7949H4.56466V23.1691H8.65983Z" fill="white"/>
</svg>
