<svg width="28" height="39" viewBox="0 0 28 39" fill="none" xmlns="http://www.w3.org/2000/svg">
<path d="M13.5052 38.5863C13.5052 38.5863 0 20.9716 0 13.5052C-2.64276e-08 11.7317 0.349322 9.97551 1.02802 8.33698C1.70672 6.69846 2.70151 5.20965 3.95558 3.95558C5.20965 2.70151 6.69846 1.70672 8.33698 1.02802C9.97551 0.349322 11.7317 0 13.5052 0C15.2787 0 17.0349 0.349322 18.6734 1.02802C20.3119 1.70672 21.8007 2.70151 23.0548 3.95558C24.3089 5.20965 25.3037 6.69846 25.9824 8.33698C26.6611 9.97551 27.0104 11.7317 27.0104 13.5052C27.0104 20.9716 13.5052 38.5863 13.5052 38.5863ZM13.5052 17.3638C14.5286 17.3638 15.51 16.9573 16.2337 16.2337C16.9573 15.51 17.3638 14.5286 17.3638 13.5052C17.3638 12.4818 16.9573 11.5004 16.2337 10.7767C15.51 10.0531 14.5286 9.64657 13.5052 9.64657C12.4818 9.64657 11.5004 10.0531 10.7767 10.7767C10.0531 11.5004 9.64657 12.4818 9.64657 13.5052C9.64657 14.5286 10.0531 15.51 10.7767 16.2337C11.5004 16.9573 12.4818 17.3638 13.5052 17.3638Z" fill="white"/>
</svg>
