<svg width="34" height="28" viewBox="0 0 34 28" fill="none" xmlns="http://www.w3.org/2000/svg">
<path d="M3.21589 27.2675C2.35322 27.2675 1.6335 26.9747 1.05673 26.3893C0.479957 25.8039 0.190946 25.0727 0.189697 24.1958V3.72795C0.189697 2.85231 0.478708 2.12177 1.05673 1.53632C1.63475 0.950874 2.35385 0.657517 3.21401 0.65625H30.8729C31.7343 0.65625 32.4534 0.949607 33.0302 1.53632C33.607 2.12303 33.896 2.85358 33.8972 3.72795V24.1977C33.8972 25.072 33.6082 25.8026 33.0302 26.3893C32.4522 26.976 31.7331 27.2687 30.8729 27.2675H3.21589ZM17.0435 14.1824L32.0246 4.23926L31.4478 2.55705L17.0435 12.0611L2.63911 2.55705L2.06234 4.23926L17.0435 14.1824Z" fill="white"/>
</svg>
