<svg width="28" height="33" viewBox="0 0 28 33" fill="none" xmlns="http://www.w3.org/2000/svg">
<path d="M24.6497 23.3844L20.6098 22.279C20.135 22.1475 19.6368 22.122 19.1524 22.2044C18.6681 22.2869 18.2103 22.4751 17.8134 22.7549L14.3779 25.1748C10.1408 22.1804 6.97835 17.9651 5.34592 13.1359L8.80009 10.7029C9.60295 10.1374 10.0919 9.24849 10.13 8.27227L10.2862 4.23916C10.3155 3.45828 10.0483 2.69153 9.53525 2.08489C9.02225 1.47825 8.29934 1.07409 7.50417 0.949362L4.70358 0.506761C2.8743 0.217663 1.11921 1.45392 0.95197 3.24706C-0.31035 16.799 9.05305 29.2606 22.7301 32.2756C24.5421 32.6746 26.2971 31.4384 26.5777 29.6631L27.0072 26.9453C27.2742 25.3612 26.2549 23.8314 24.6497 23.3844Z" fill="white"/>
</svg>
