<svg width="21" height="21" viewBox="0 0 21 21" fill="none" xmlns="http://www.w3.org/2000/svg">
<path d="M1.51104 14.9925L16.944 8.04763L11.437 20.4934C11.3494 20.6935 11.5507 20.9012 11.7459 20.8134L14.0803 19.763C14.1831 19.7167 14.2635 19.6346 14.3094 19.532L20.2537 6.10576C20.3082 5.98288 20.3359 5.8488 20.335 5.7126C20.334 5.57641 20.3045 5.44129 20.2483 5.3164C20.1921 5.1915 20.1105 5.07976 20.0092 4.98872C19.9079 4.89769 19.7892 4.82951 19.6611 4.78878L5.58748 0.30509C5.53196 0.287447 5.4759 0.289726 5.42578 0.312278L3.01232 1.39833C2.81713 1.48617 2.84034 1.77738 3.04694 1.84179L16.0115 5.97536L0.578521 12.9202C0.462463 12.9724 0.41168 13.1133 0.465668 13.2333L1.20187 14.8693C1.25586 14.9893 1.39498 15.0447 1.51104 14.9925Z" fill="white"/>
</svg>
