<svg width="1721" height="985" viewBox="0 0 1721 985" fill="none" xmlns="http://www.w3.org/2000/svg">
<line x1="137.849" y1="4.15138e-08" x2="137.849" y2="985" stroke="white" stroke-opacity="0.07" stroke-width="1.37901"/>
<line y1="150.376" x2="1721" y2="150.376" stroke="white" stroke-opacity="0.07" stroke-width="1.37901"/>
<line y1="300.215" x2="1721" y2="300.215" stroke="white" stroke-opacity="0.07" stroke-width="1.37901"/>
<line y1="450.052" x2="1721" y2="450.052" stroke="white" stroke-opacity="0.07" stroke-width="1.37901"/>
<line y1="599.891" x2="1721" y2="599.891" stroke="white" stroke-opacity="0.07" stroke-width="1.37901"/>
<line y1="749.728" x2="1721" y2="749.728" stroke="white" stroke-opacity="0.07" stroke-width="1.37901"/>
<line x1="666.463" y1="4.15138e-08" x2="666.463" y2="985" stroke="white" stroke-opacity="0.07" stroke-width="1.37901"/>
<line x1="1195.08" y1="4.15138e-08" x2="1195.08" y2="985" stroke="white" stroke-opacity="0.07" stroke-width="1.37901"/>
<line x1="270.002" y1="4.15138e-08" x2="270.002" y2="985" stroke="white" stroke-opacity="0.07" stroke-width="1.37901"/>
<line x1="798.617" y1="4.15138e-08" x2="798.617" y2="985" stroke="white" stroke-opacity="0.07" stroke-width="1.37901"/>
<line x1="1327.23" y1="4.15138e-08" x2="1327.23" y2="985" stroke="white" stroke-opacity="0.07" stroke-width="1.37901"/>
<line x1="402.156" y1="4.15138e-08" x2="402.156" y2="985" stroke="white" stroke-opacity="0.07" stroke-width="1.37901"/>
<line x1="930.77" y1="4.15138e-08" x2="930.77" y2="985" stroke="white" stroke-opacity="0.07" stroke-width="1.37901"/>
<line x1="1459.38" y1="4.15138e-08" x2="1459.38" y2="985" stroke="white" stroke-opacity="0.07" stroke-width="1.37901"/>
<line x1="534.31" y1="4.15138e-08" x2="534.31" y2="985" stroke="white" stroke-opacity="0.07" stroke-width="1.37901"/>
<line x1="1062.92" y1="4.15138e-08" x2="1062.92" y2="985" stroke="white" stroke-opacity="0.07" stroke-width="1.37901"/>
<line x1="1591.54" y1="4.15138e-08" x2="1591.54" y2="985" stroke="white" stroke-opacity="0.07" stroke-width="1.37901"/>
<path d="M1625.9 122.837L1601.76 147.403L1633.08 149.288C1633.59 149.321 1633.95 149.96 1633.64 150.271L1629.99 153.986C1629.83 154.15 1629.6 154.229 1629.35 154.215L1595.56 152.187C1595.25 152.169 1594.93 152.083 1594.62 151.936C1594.31 151.788 1594.02 151.583 1593.76 151.333C1593.51 151.083 1593.3 150.794 1593.14 150.487C1592.99 150.18 1592.9 149.861 1592.88 149.552L1590.24 115.59C1590.23 115.456 1590.27 115.342 1590.35 115.263L1594.12 111.421C1594.43 111.11 1595.08 111.47 1595.11 111.967L1597.55 143.255L1621.68 118.689C1621.86 118.504 1622.21 118.55 1622.45 118.79L1625.78 122.064C1626.03 122.304 1626.08 122.652 1625.9 122.837Z" fill="#7744D5"/>
</svg>
